<svg width="2817" height="1876" viewBox="0 0 2817 1876" fill="none" xmlns="http://www.w3.org/2000/svg">
    <path opacity="0.1"
          d="M1637.12 309.127C1456.59 302.911 1284.65 244.915 1120.47 181.48C956.282 118.045 793.661 47.7841 617.455 14.1797C504.122 -7.437 374.499 -10.5172 283.203 49.8653C195.309 108.139 166.913 208.453 151.655 301.607C140.163 371.702 133.413 445.487 164.877 511.114C186.746 556.678 225.518 594.972 252.352 638.622C345.713 790.466 279.716 977.719 178.573 1125.98C131.153 1195.52 76.0627 1261.95 39.438 1335.91C2.81333 1409.86 -14.1183 1494.88 17.9318 1570.53C49.6751 1645.45 125.351 1701.61 207.331 1741.16C373.83 1821.49 569.952 1844.47 761.332 1857.51C1184.84 1886.31 1610.59 1873.85 2035.22 1861.34C2192.37 1856.73 2350.2 1852.04 2504.78 1827.87C2590.64 1814.44 2679.26 1793.13 2741.6 1741.68C2820.71 1676.39 2840.32 1565.84 2787.29 1483.98C2698.37 1346.62 2452.57 1312.51 2390.34 1165.14C2356.14 1084 2391.26 993.647 2440.99 918.418C2547.66 757.001 2726.43 615.396 2735.83 430.919C2742.3 304.215 2656.36 177.318 2523.47 117.352C2384.2 54.4994 2191.03 62.408 2088.33 166.44C1982.47 273.441 1796.53 314.649 1637.12 309.127Z"
          fill="#6C63FF"/>
</svg>
