<svg width="120" height="120" viewBox="0 0 120 120" fill="none" xmlns="http://www.w3.org/2000/svg">
<g id="icon/content/add_circle_outline_24px">
<path id="icon/content/add_circle_outline_24px_2" fill-rule="evenodd" clip-rule="evenodd" d="M60 10C32.4 10 10 32.4 10 60C10 87.6 32.4 110 60 110C87.6 110 110 87.6 110 60C110 32.4 87.6 10 60 10ZM64.9999 55V35H54.9999V55H34.9999V65H54.9999V85H64.9999V65H84.9999V55H64.9999ZM19.9999 60C19.9999 82.05 37.9499 100 59.9999 100C82.0499 100 99.9999 82.05 99.9999 60C99.9999 37.95 82.0499 20 59.9999 20C37.9499 20 19.9999 37.95 19.9999 60Z" fill="#a2aebe"/>
</g>
</svg>
