<svg width="48" height="48" viewBox="0 0 48 48" fill="none" xmlns="http://www.w3.org/2000/svg">
<g id="icon/navigation/more_horiz_24px">
<path id="icon/navigation/more_horiz_24px_2" fill-rule="evenodd" clip-rule="evenodd" d="M12 20C9.8 20 8 21.8 8 24C8 26.2 9.8 28 12 28C14.2 28 16 26.2 16 24C16 21.8 14.2 20 12 20ZM36 20C33.8 20 32 21.8 32 24C32 26.2 33.8 28 36 28C38.2 28 40 26.2 40 24C40 21.8 38.2 20 36 20ZM20 24C20 21.8 21.8 20 24 20C26.2 20 28 21.8 28 24C28 26.2 26.2 28 24 28C21.8 28 20 26.2 20 24Z" fill="white"/>
</g>
</svg>
