<svg width="40" height="40" viewBox="0 0 40 40" fill="none" xmlns="http://www.w3.org/2000/svg">
<g id="icon/action/settings_24px">
<path id="icon/action/settings_24px_2" fill-rule="evenodd" clip-rule="evenodd" d="M32.5038 20C32.5038 20.5666 32.4538 21.1 32.3871 21.6333L35.9038 24.3833C36.2204 24.6333 36.3038 25.0833 36.1038 25.45L32.7704 31.2166C32.6204 31.4833 32.3371 31.6333 32.0538 31.6333C31.9538 31.6333 31.8538 31.6166 31.7538 31.5833L27.6038 29.9166C26.7371 30.5666 25.8038 31.1333 24.7871 31.55L24.1538 35.9666C24.1038 36.3666 23.7538 36.6666 23.3371 36.6666H16.6704C16.2538 36.6666 15.9038 36.3666 15.8538 35.9666L15.2204 31.55C14.2038 31.1333 13.2704 30.5833 12.4038 29.9166L8.25376 31.5833C8.17043 31.6166 8.07043 31.6333 7.97043 31.6333C7.67043 31.6333 7.38709 31.4833 7.23709 31.2166L3.90376 25.45C3.70376 25.0833 3.78709 24.6333 4.10376 24.3833L7.62043 21.6333C7.55376 21.1 7.50376 20.55 7.50376 20C7.50376 19.45 7.55376 18.9 7.62043 18.3666L4.10376 15.6166C3.78709 15.3666 3.68709 14.9166 3.90376 14.55L7.23709 8.78331C7.38709 8.51665 7.67043 8.36665 7.95376 8.36665C8.05376 8.36665 8.15376 8.38331 8.25376 8.41665L12.4038 10.0833C13.2704 9.43331 14.2038 8.86665 15.2204 8.44998L15.8538 4.03331C15.9038 3.63331 16.2538 3.33331 16.6704 3.33331H23.3371C23.7538 3.33331 24.1038 3.63331 24.1538 4.03331L24.7871 8.44998C25.8038 8.86665 26.7371 9.41665 27.6038 10.0833L31.7538 8.41665C31.8371 8.38331 31.9371 8.36665 32.0371 8.36665C32.3371 8.36665 32.6204 8.51665 32.7704 8.78331L36.1038 14.55C36.3038 14.9166 36.2204 15.3666 35.9038 15.6166L32.3871 18.3666C32.4538 18.9 32.5038 19.4333 32.5038 20ZM29.1704 20C29.1704 19.65 29.1537 19.3 29.087 18.7833L28.8537 16.9L30.337 15.7333L32.1204 14.3166L30.9537 12.3L28.837 13.15L27.0704 13.8666L25.5537 12.7C24.887 12.2 24.2204 11.8166 23.5037 11.5166L21.737 10.8L21.4704 8.91665L21.1537 6.66665H18.837L18.5037 8.91665L18.237 10.8L16.4704 11.5166C15.787 11.8 15.1037 12.2 14.387 12.7333L12.887 13.8666L11.1537 13.1666L9.03702 12.3166L7.87035 14.3333L9.67035 15.7333L11.1537 16.9L10.9204 18.7833C10.8704 19.2833 10.837 19.6666 10.837 20C10.837 20.3333 10.8704 20.7166 10.9204 21.2333L11.1537 23.1166L9.67035 24.2833L7.87035 25.6833L9.03702 27.7L11.1537 26.85L12.9204 26.1333L14.437 27.3C15.1037 27.8 15.7704 28.1833 16.487 28.4833L18.2537 29.2L18.5204 31.0833L18.837 33.3333H21.1704L21.5037 31.0833L21.7704 29.2L23.537 28.4833C24.2204 28.2 24.9037 27.8 25.6204 27.2666L27.1204 26.1333L28.8537 26.8333L30.9704 27.6833L32.137 25.6666L30.337 24.2666L28.8537 23.1L29.087 21.2166C29.137 20.7166 29.1704 20.35 29.1704 20ZM20.0037 13.3333C16.3204 13.3333 13.337 16.3166 13.337 20C13.337 23.6833 16.3204 26.6666 20.0037 26.6666C23.687 26.6666 26.6704 23.6833 26.6704 20C26.6704 16.3166 23.687 13.3333 20.0037 13.3333ZM16.6704 20C16.6704 21.8333 18.1704 23.3333 20.0037 23.3333C21.837 23.3333 23.337 21.8333 23.337 20C23.337 18.1666 21.837 16.6666 20.0037 16.6666C18.1704 16.6666 16.6704 18.1666 16.6704 20Z" fill="white"/>
</g>
</svg>
