<svg width="3059" height="2472" viewBox="0 0 3059 2472" fill="none" xmlns="http://www.w3.org/2000/svg">
<path opacity="0.1" d="M1108.81 2287.54C1380.1 2287.54 1600.02 2246.1 1600.02 2194.97C1600.02 2143.85 1380.1 2102.4 1108.81 2102.4C837.518 2102.4 617.595 2143.85 617.595 2194.97C617.595 2246.1 837.518 2287.54 1108.81 2287.54Z" fill="#6C63FF"/>
<path opacity="0.1" d="M1757.12 447.127C1576.59 440.911 1404.65 382.915 1240.47 319.48C1076.28 256.045 913.661 185.784 737.455 152.18C624.122 130.563 494.499 127.483 403.203 187.865C315.309 246.139 286.913 346.453 271.655 439.607C260.163 509.702 253.413 583.487 284.877 649.114C306.746 694.678 345.518 732.972 372.352 776.622C465.713 928.466 399.716 1115.72 298.573 1263.98C251.153 1333.52 196.063 1399.95 159.438 1473.91C122.813 1547.86 105.882 1632.88 137.932 1708.53C169.675 1783.45 245.351 1839.61 327.331 1879.16C493.83 1959.49 689.952 1982.47 881.332 1995.51C1304.84 2024.31 1730.59 2011.85 2155.22 1999.34C2312.37 1994.73 2470.2 1990.04 2624.78 1965.87C2710.64 1952.44 2799.26 1931.13 2861.6 1879.68C2940.71 1814.39 2960.32 1703.84 2907.29 1621.98C2818.37 1484.62 2572.57 1450.51 2510.34 1303.14C2476.14 1222 2511.26 1131.65 2560.99 1056.42C2667.66 895.001 2846.43 753.396 2855.83 568.919C2862.3 442.215 2776.36 315.318 2643.47 255.352C2504.2 192.499 2311.03 200.408 2208.33 304.44C2102.47 411.441 1916.53 452.649 1757.12 447.127Z" fill="#6C63FF"/>
<path d="M1613.66 1141.8L1528.22 1084.5L1571.31 1020.68L1345.65 1002.78L1264.57 1065.16L1163.06 1008.55L1078.4 1018.68L1077.4 996.48C1076.35 973.337 1074.01 950.27 1070.4 927.384C1070.76 920.447 1071.01 912.483 1070.98 903.825C1070.98 867.335 1066.02 818.968 1044.2 786.723L1049.23 741.825L1008.5 693.957C1015.04 680.997 1022.5 668.515 1030.82 656.607C1032.21 654.609 1033.6 652.666 1035.11 650.779C1087.97 646.978 1129.67 603.744 1129.67 550.882C1129.67 548.44 1129.67 545.998 1129.39 543.584C1129.39 542.612 1129.2 541.613 1129.09 540.642C1134.25 543.417 1139.46 546.192 1144.68 548.967C1145.65 550.354 1146.77 551.742 1148 553.379L1148.25 553.684L1149.81 555.599L1150.31 556.182C1150.87 556.848 1151.46 557.486 1152.04 558.152L1152.43 558.596C1153.91 560.233 1155.47 561.898 1157.15 563.535C1157.35 563.697 1157.53 563.873 1157.7 564.063L1159.8 566.005L1160.38 566.532C1162.17 568.114 1164.06 569.64 1165.96 571.083L1166.57 571.527L1168.97 573.164L1169.75 573.664C1170.68 574.219 1171.62 574.802 1172.54 575.329L1172.88 575.523C1173.97 576.106 1175.08 576.661 1176.2 577.188L1176.76 577.41C1177.7 577.817 1178.63 578.206 1179.55 578.576L1180.41 578.881C1181.39 579.214 1182.33 579.519 1183.34 579.796L1183.95 579.963C1185.18 580.268 1186.41 580.518 1187.66 580.712H1187.8C1188.98 580.902 1190.18 581.023 1191.37 581.073H1192.18C1193.25 581.129 1194.32 581.129 1195.39 581.073H1196.09C1197.42 580.996 1198.76 580.839 1200.08 580.601C1206.32 579.785 1212.31 577.646 1217.65 574.33C1219.01 573.425 1220.21 572.311 1221.22 571.028C1226.8 563.757 1220.66 555.793 1220.66 555.793C1218.49 550.632 1204.37 546.997 1204.37 546.997C1204.37 546.997 1159.74 528.46 1159.74 513.698C1159.74 498.935 1148.58 422.347 1033.41 404.837C1033.41 404.837 958.486 400.647 937.426 440.55L936.98 445.212C930.788 449.07 925.655 456.812 919.546 459.087C916.907 459.651 914.362 460.585 911.987 461.862V461.335C911.282 461.948 910.704 462.693 910.286 463.527C908.973 466.124 908.187 468.953 907.97 471.852C907.342 475.393 906.106 478.8 904.316 481.925C903.817 482.813 903.258 483.665 902.643 484.478L902.168 485.227C905.407 485.478 908.659 484.955 911.652 483.701C911.181 487.5 910.244 491.227 908.863 494.8C910.636 494.857 912.389 494.407 913.912 493.501C915.435 492.596 916.664 491.275 917.454 489.695V489.473L917.817 488.973C918.518 487.688 919.097 486.341 919.546 484.949L919.239 485.282C919.797 483.479 920.299 481.647 920.913 479.871C921.194 478.871 921.658 477.93 922.28 477.096C923.024 476.35 923.935 475.787 924.938 475.455C925.941 475.122 927.008 475.029 928.054 475.182L926.91 499.24H927.412C926.741 500.99 925.919 502.68 924.958 504.291C920.997 510.673 913.8 515.03 911.15 522.022C910.008 525.395 909.571 528.965 909.867 532.512C909.867 534.593 910.118 536.702 910.286 538.783V538.616C910.676 544.166 910.788 549.439 907.775 553.906C905.711 556.959 902.392 559.262 901.248 562.731C900.932 563.697 900.79 564.712 900.829 565.728C901.053 568.768 901.691 571.765 902.726 574.635C902.738 574.58 902.738 574.523 902.726 574.469C903.422 576.58 903.585 578.829 903.2 581.017C901.945 586.567 895.167 591.201 895.502 596.502C895.483 597.199 895.587 597.894 895.809 598.555C897.113 601.144 899.371 603.132 902.113 604.105C906.413 606.538 911.352 607.621 916.283 607.213C918.131 606.881 919.917 606.273 921.583 605.409C919.63 609.877 917.622 614.289 915.585 618.479C915.279 619.145 914.944 619.811 914.609 620.477C914.609 620.477 897.371 609.016 887.58 632.381C884.722 637.237 882.677 642.523 881.527 648.032C881.036 650.236 880.346 652.391 879.463 654.47C875.116 661.79 868.611 667.603 860.83 671.119C840.858 680.221 760.189 780.313 758.766 806.231C758.068 816.348 756.348 826.37 753.633 836.144C747.283 859.164 745.652 883.218 748.836 906.877C749.832 914.524 751.484 922.071 753.773 929.438C762.336 955.328 768.055 1003.64 768.055 1003.64L777.315 1087.5C776.972 1099.07 777.475 1110.66 778.822 1122.16C769.366 1132.9 731.402 1177.66 745.907 1189.84C757.064 1199.44 776.59 1197.86 787.552 1195.89C778.32 1218.61 763.787 1258.13 761.862 1285.27C759.073 1325.42 766.632 1378.62 778.599 1399.04C790.565 1419.46 830.453 1471.85 830.453 1471.85C830.453 1471.85 828.584 1543.72 842.838 1569.84C857.092 1595.95 862.838 1650.11 862.838 1650.11C862.838 1650.11 876.143 1695.85 869.477 1712.66C862.81 1729.48 881.834 1743.46 861.862 1754.65C841.89 1765.83 816.339 2017.88 816.339 2017.88C816.339 2017.88 806.046 2183.07 816.339 2191.48C816.89 2191.87 817.478 2192.22 818.096 2192.5V2248C818.096 2248 810.955 2259.66 839.993 2262.01C859.881 2263.6 916.255 2267.18 949.7 2269.26L975.613 2270.87C975.613 2270.87 1036.98 2283.02 1064.09 2270.87C1091.21 2258.71 1139.27 2258.99 1132.13 2226.88C1131.18 2222.51 1129.91 2218.22 1128.33 2214.04C1120.49 2194.11 1107.19 2191.84 1082.67 2186.29C1081.25 2185.98 1079.88 2185.7 1078.63 2185.48C1052.8 2181.01 1044.32 2192.97 1029.84 2177.41C1017.26 2163.95 977.203 2148.88 963.563 2144.11C963.898 2143.11 964.316 2142.14 964.651 2141.11C960.788 2140.46 957.196 2138.72 954.302 2136.09L991.262 2138.42L1013.27 2139.78C1013.27 2139.78 1065.43 2150.13 1088.58 2139.78C1111.74 2129.43 1152.46 2129.71 1146.38 2102.43C1145.58 2098.71 1144.51 2095.06 1143.17 2091.49C1136.51 2074.57 1125.18 2072.71 1104.34 2068.02C1103.14 2067.77 1102.03 2067.52 1100.91 2067.33C1078.96 2063.52 1071.76 2073.68 1059.46 2060.47C1048.92 2049.2 1015.64 2036.58 1003.67 2032.28C1003.67 2026.12 995.306 2017.35 990.034 2008.55C983.842 1998.28 995.278 1962.35 995.278 1962.35L1001.81 1813.25C1004.29 1812.15 1006.92 1811.4 1009.62 1811.03C1009.62 1811.03 1039.13 1783.01 1032.46 1753.15C1031.1 1744.12 1030.39 1735 1030.34 1725.87C1040.05 1716.91 1053.41 1703.67 1057.2 1695.51C1063.4 1682.22 1057.2 1617.81 1057.2 1617.81V1371.54L1106.57 1376.51L1151.37 1381.09L1165.01 1382.47L1209.81 1386.97L1312.77 1397.32L1405.54 1379.84L1445.68 1372.29L1528.22 1356.75V1155.84L1613.66 1141.8ZM934.135 476.07L928.389 475.459C930.285 475.542 932.294 475.903 934.135 476.07Z" fill="url(#paint0_linear)"/>
<path d="M1413.41 1272.25C1385.51 1311.96 1285.24 1290.93 1285.24 1290.93L1207.52 1218.59L1197.06 1208.79L1214.61 1171.72C1214.61 1171.72 1220.19 1173.24 1229.75 1175.96C1279.99 1190.48 1436.95 1238.87 1413.41 1272.25Z" fill="#EFB7B9"/>
<path opacity="0.1" d="M1229.7 1175.96C1226.27 1187.84 1216.87 1205.63 1207.52 1218.59L1197.06 1208.79L1214.61 1171.72C1214.61 1171.72 1220.24 1173.24 1229.7 1175.96Z" fill="black"/>
<path d="M963.172 757.892C963.172 757.892 891.541 789.498 895.056 867.113C897.584 917.116 903.061 966.928 911.457 1016.29C911.457 1016.29 896.813 1133.09 957.789 1163.2C1018.76 1193.31 1075.19 1218.06 1075.19 1218.06C1075.19 1218.06 1170.59 1228.27 1182.45 1232.49C1194.3 1236.71 1231.34 1172.22 1224.51 1162.17C1217.68 1152.13 1130.12 1131.06 1118.96 1114.3C1107.8 1097.54 1082 1087.19 1082 1087.19C1082 1087.19 1055.36 1071.15 1053.55 1056.67C1051.74 1042.18 1058.76 1031.39 1060.55 1025.03C1062.34 1018.68 1066.85 957.326 1066.85 957.326C1066.85 957.326 1096.92 738.939 963.172 757.892Z" fill="#DCE6F2"/>
<path opacity="0.1" d="M1010.45 1013.1C1010.45 1013.1 912.182 1029.47 921.694 1063.69C921.694 1063.69 957.37 1026.75 1010.45 1013.1Z" fill="black"/>
<path opacity="0.1" d="M1011.21 1026.95C1011.21 1026.95 957.175 1070.82 967.747 1073.07C978.319 1075.32 1011.21 1026.95 1011.21 1026.95Z" fill="black"/>
<path opacity="0.1" d="M1037.17 1042.24C1037.17 1042.24 1022.7 1071.74 1031.6 1069.74C1040.49 1067.74 1037.17 1042.24 1037.17 1042.24Z" fill="black"/>
<path opacity="0.1" d="M1233.32 1179.1L1227.36 1177.41C1229.06 1171.86 1229.53 1167.36 1228.14 1165.28C1221.3 1155.23 1133.8 1134.2 1122.67 1117.41C1111.54 1100.62 1085.71 1090.3 1085.71 1090.3C1085.71 1090.3 1059.07 1074.26 1057.26 1059.78C1055.45 1045.29 1062.47 1034.5 1064.26 1028.14C1066.05 1021.79 1070.56 960.406 1070.56 960.406C1070.56 960.406 1100.55 742.047 966.799 760.999C966.799 760.999 895.167 792.634 898.654 870.248C901.184 920.253 906.67 970.066 915.083 1019.43C915.083 1019.43 900.439 1136.23 961.415 1166.33C1022.39 1196.44 1078.82 1221.19 1078.82 1221.19C1078.82 1221.19 1174.19 1231.38 1186.07 1235.62C1190.56 1237.23 1198.68 1228.94 1206.63 1217.53L1211.15 1221.72L1288.86 1294.04C1288.86 1294.04 1389.14 1315.1 1417.03 1275.39C1440.6 1241.98 1283.67 1193.58 1233.32 1179.1Z" fill="black"/>
<path d="M921.945 466.579C919.214 467.11 916.599 468.116 914.219 469.549C911.429 471.852 911.429 475.792 910.732 479.233C909.913 484.02 908.004 488.557 905.153 492.497C908.327 492.729 911.511 492.206 914.442 490.971C913.964 494.769 913.028 498.496 911.652 502.071C913.39 502.115 915.104 501.659 916.589 500.758C918.073 499.858 919.264 498.55 920.02 496.993C921.496 493.866 922.664 490.604 923.507 487.253C923.769 486.25 924.224 485.308 924.846 484.478C927.412 481.453 932.182 482.813 936.143 483.201C939.439 483.478 942.75 482.872 945.732 481.448C948.714 480.023 951.259 477.831 953.103 475.098C957.315 468.744 957.566 452.483 947.524 450.762C937.036 449.042 930.509 463.416 921.945 466.579Z" fill="#965D7B"/>
<g opacity="0.1">
<path opacity="0.1" d="M913.94 472.962C914.191 471.602 914.358 470.187 914.665 468.827C912.015 471.13 911.876 475.043 911.178 478.512C910.827 480.513 910.276 482.474 909.533 484.367C911.729 480.884 913.226 477.011 913.94 472.962Z" fill="black"/>
<path opacity="0.1" d="M914.832 495.883C916.221 492.312 917.158 488.584 917.622 484.783C914.829 485.952 911.805 486.474 908.779 486.309C907.899 488.261 906.824 490.12 905.572 491.859C908.734 492.102 911.91 491.589 914.832 490.36C914.369 494.161 913.432 497.89 912.043 501.46C913.78 501.501 915.493 501.044 916.976 500.143C918.46 499.243 919.652 497.937 920.411 496.382C921.106 495.121 921.667 493.791 922.085 492.414C921.266 493.552 920.173 494.466 918.905 495.072C917.638 495.679 916.237 495.957 914.832 495.883Z" fill="black"/>
<path opacity="0.1" d="M939.323 477.013C935.362 476.625 930.565 475.265 927.998 478.29C927.387 479.127 926.934 480.067 926.659 481.064C926.408 481.786 926.185 482.535 925.99 483.284C928.64 481.203 932.936 482.313 936.534 482.674C939.829 482.942 943.137 482.332 946.117 480.908C949.097 479.484 951.643 477.297 953.493 474.571C954.339 473.224 954.969 471.754 955.362 470.214C953.452 472.567 950.991 474.416 948.194 475.602C945.398 476.787 942.352 477.272 939.323 477.013Z" fill="black"/>
</g>
<path d="M1005.91 695.761L1048.44 746.653L1042.89 798.017L991.485 717.96L1005.91 695.761Z" fill="#DCE6F2"/>
<path opacity="0.1" d="M1048.42 746.653L1043.2 794.965L1042.87 798.017L996.478 725.758L991.485 717.96L992.935 715.713L1005.88 695.761L1008.75 699.202L1048.42 746.653Z" fill="black"/>
<path d="M1070.51 626.859C1056.11 630.966 1042.36 645.063 1030.4 662.184C1022.31 673.997 1015.08 686.368 1008.75 699.202C1004.82 707.027 1001.36 714.547 998.486 721.096L996.478 725.758C991.624 737.163 988.918 744.794 988.918 744.794C988.918 744.794 878.738 662.378 896.171 656.829C902.029 654.969 909.728 642.482 917.343 626.748L918.291 624.75C923.117 614.65 927.859 603.383 932.071 592.783C940.69 571 947.078 552.075 947.078 552.075C947.078 552.075 1114.44 614.372 1070.51 626.859Z" fill="#EFB7B9"/>
<path d="M1136.42 547.441C1136.42 547.441 1161.86 593.227 1196.03 586.984C1230.2 580.74 1216.14 562.398 1216.14 562.398L1136.42 547.441Z" fill="#444053"/>
<path d="M1087.13 2132.34C1064.59 2142.58 1013.63 2132.34 1013.63 2132.34L992.154 2131.01C964.26 2129.23 917.566 2126.24 901.053 2124.9C876.952 2122.93 882.866 2113.11 882.866 2113.11V2053.76L999.797 2024.29C999.797 2024.29 1046.02 2040.02 1058.68 2053.76C1070.7 2066.85 1077.73 2056.78 1099.18 2060.55C1100.24 2060.75 1101.36 2060.97 1102.53 2061.25C1122.89 2065.88 1133.94 2067.71 1140.47 2084.5C1141.78 2088.03 1142.83 2091.65 1143.62 2095.32C1149.64 2122.35 1109.64 2122.16 1087.13 2132.34Z" fill="#A36468"/>
<path opacity="0.1" d="M1140.47 2084.5C1136.28 2087.11 1131.87 2089.35 1127.3 2091.22C1111.96 2098.18 1097.37 2106.67 1081.86 2113.25C1066.35 2119.83 1049.64 2124.52 1032.85 2123.27C1024.06 2122.63 1015.08 2120.49 1006.69 2122.99C1001.49 2124.98 996.604 2127.68 992.154 2131.01C964.26 2129.23 917.566 2126.24 901.053 2124.9C876.952 2122.93 882.866 2113.11 882.866 2113.11V2106.17C883.731 2106.17 884.707 2105.92 885.823 2105.84C891.595 2105.75 897.344 2106.6 902.838 2108.37C914.944 2111.64 926.994 2114.86 939.1 2118.08C940.096 2114.34 941.846 2110.84 944.243 2107.8C946.641 2104.76 949.636 2102.23 953.047 2100.37C959.957 2096.73 967.712 2094.95 975.529 2095.24C994.302 2095.49 1012.07 2104.34 1030.82 2105.23C1036.06 2105.71 1041.33 2104.83 1046.13 2102.68C1048.7 2101.4 1050.95 2099.54 1053.46 2098.13C1057.48 2096.19 1061.73 2094.77 1066.1 2093.88C1078.39 2090.84 1090.46 2086.96 1102.22 2082.28C1105.57 2080.98 1109.48 2078.62 1109.03 2075.07C1108.44 2070.35 1101 2069.79 1099.04 2065.47C1098.7 2064.69 1098.54 2063.84 1098.58 2062.98C1098.62 2062.13 1098.85 2061.3 1099.27 2060.55C1100.33 2060.75 1101.44 2060.97 1102.61 2061.25C1122.89 2065.88 1133.94 2067.71 1140.47 2084.5Z" fill="black"/>
<path d="M1063.31 2262.21C1036.81 2274.25 976.84 2262.21 976.84 2262.21L951.596 2260.74C918.905 2258.66 863.842 2255.19 844.4 2253.55C816.032 2251.22 823.006 2239.68 823.006 2239.68V2169.72L960.606 2135.03C960.606 2135.03 1015 2153.54 1029.89 2169.72C1044.04 2185.12 1052.21 2173.27 1077.57 2177.71C1078.82 2177.93 1080.13 2178.21 1081.5 2178.52C1105.46 2184.07 1118.46 2186.15 1126.13 2205.91C1127.68 2210.05 1128.92 2214.31 1129.84 2218.64C1136.76 2250.44 1089.81 2250.19 1063.31 2262.21Z" fill="#A36468"/>
<path opacity="0.1" d="M1126.07 2205.91C1121.14 2208.97 1115.97 2211.61 1110.59 2213.81C1092.54 2222 1075.36 2231.99 1057.12 2239.73C1038.88 2247.47 1019.21 2252.97 999.434 2251.52C989.114 2250.78 978.542 2248.19 968.751 2251.19C962.616 2253.57 956.843 2256.78 951.596 2260.74C918.905 2258.66 863.842 2255.19 844.4 2253.55C816.032 2251.22 823.006 2239.68 823.006 2239.68V2231.52C824.161 2231.33 825.324 2231.2 826.492 2231.13C833.288 2231.01 840.056 2232.01 846.52 2234.1L889.17 2245.53C890.358 2241.12 892.438 2237 895.282 2233.42C898.126 2229.83 901.674 2226.86 905.711 2224.69C913.841 2220.38 922.976 2218.29 932.182 2218.64C954.274 2218.95 975.167 2229.35 997.231 2230.41C1003.38 2230.97 1009.56 2229.94 1015.19 2227.44C1018.23 2225.91 1020.77 2223.72 1023.84 2222.08C1028.56 2219.78 1033.56 2218.11 1038.71 2217.09C1053.09 2213.48 1067.22 2208.92 1081 2203.44C1084.93 2201.88 1089.53 2199.11 1089 2194.94C1088.3 2189.39 1079.55 2188.73 1077.23 2183.62C1076.84 2182.7 1076.66 2181.7 1076.71 2180.7C1076.76 2179.71 1077.03 2178.73 1077.51 2177.85C1078.76 2178.07 1080.08 2178.35 1081.44 2178.66C1105.4 2183.98 1118.4 2186.15 1126.07 2205.91Z" fill="black"/>
<path d="M1003.34 1782.17L995.892 1956.52C995.892 1956.52 984.734 1992.12 990.787 2002.31C996.84 2012.49 1007.05 2022.65 1003.34 2028.67C999.63 2034.69 955 2099.79 940.578 2074.82C926.157 2049.84 911.931 1941.62 911.931 1941.62L925.237 1807.95L1003.34 1782.17Z" fill="#444053"/>
<path d="M1035.64 1347.79L1056.34 1375.31V1614.73C1056.34 1614.73 1062.39 1678.56 1056.34 1691.74C1050.28 1704.92 1019.6 1731.28 1019.6 1731.28L993.8 1599.47L999.379 1460.03L1035.64 1347.79Z" fill="#444053"/>
<path opacity="0.1" d="M1003.34 1782.17L995.892 1956.52C995.892 1956.52 984.734 1992.12 990.787 2002.31C996.84 2012.49 1007.05 2022.65 1003.34 2028.67C999.63 2034.69 955 2099.79 940.578 2074.82C926.157 2049.84 911.931 1941.62 911.931 1941.62L925.237 1807.95L1003.34 1782.17Z" fill="black"/>
<path opacity="0.1" d="M1035.64 1347.79L1056.34 1375.31V1614.73C1056.34 1614.73 1062.39 1678.56 1056.34 1691.74C1050.28 1704.92 1019.6 1731.28 1019.6 1731.28L993.8 1599.47L999.379 1460.03L1035.64 1347.79Z" fill="black"/>
<path d="M1056.34 1245.67V1375.17L1033.1 1475.99C1033.1 1475.99 1025.65 1719.27 1032.15 1748.85C1038.65 1778.43 1009.84 1806.2 1009.84 1806.2C1009.84 1806.2 993.103 1808.06 993.103 1820.99C993.103 1833.93 965.209 1870.94 965.209 1870.94L966.129 1943.09C966.129 1943.09 978.235 2078.15 959.63 2104.04C941.025 2129.93 966.129 2133.65 966.129 2133.65C942.893 2209.48 831.318 2191.92 821.248 2183.59C811.179 2175.27 821.248 2011.55 821.248 2011.55C821.248 2011.55 846.185 1761.81 865.711 1750.71C885.237 1739.61 866.66 1725.73 873.159 1709.08C879.658 1692.43 866.659 1647.12 866.659 1647.12C866.659 1647.12 861.081 1593.45 847.134 1567.56C833.187 1541.67 835.028 1470.44 835.028 1470.44C835.028 1470.44 795.976 1418.63 784.372 1398.29C772.769 1377.95 765.293 1325.23 768.082 1285.43C769.979 1258.54 784.177 1219.39 793.187 1196.86C797.511 1186.06 800.635 1179.07 800.635 1179.07L803.285 1179.76L955.641 1219.45L1056.34 1245.67Z" fill="#444053"/>
<path opacity="0.1" d="M1070.51 626.859C1056.11 630.966 1042.36 645.063 1030.4 662.184H1027.27C1009.73 662.197 992.5 657.602 977.317 648.866C962.133 640.13 949.537 627.561 940.802 612.43C937.151 606.16 934.213 599.505 932.043 592.589C940.662 570.806 947.05 551.881 947.05 551.881C947.05 551.881 1114.44 614.372 1070.51 626.859Z" fill="black"/>
<path d="M1126.99 557.486C1127.02 572.669 1123.54 587.656 1116.82 601.291C1110.11 614.926 1100.34 626.846 1088.26 636.132C1076.19 645.418 1062.13 651.824 1047.18 654.854C1032.22 657.885 1016.77 657.46 1002 653.612C987.238 649.765 973.559 642.597 962.018 632.661C950.477 622.726 941.382 610.287 935.435 596.304C929.487 582.321 926.846 567.166 927.713 552.008C928.581 536.849 932.935 522.091 940.439 508.869C943.462 503.497 946.992 498.424 950.983 493.718C957.561 485.922 965.292 479.167 973.912 473.683C988.471 464.479 1005.18 459.19 1022.41 458.332C1039.64 457.474 1056.8 461.076 1072.21 468.788C1087.62 476.499 1100.75 488.056 1110.33 502.328C1119.91 516.6 1125.6 533.1 1126.85 550.216C1126.91 552.658 1126.99 555.072 1126.99 557.486Z" fill="#EFB7B9"/>
<path opacity="0.1" d="M1043.2 794.965L1042.87 798.017L996.478 725.869C991.624 737.274 988.918 744.905 988.918 744.905C988.918 744.905 878.738 662.379 896.171 656.829C902.029 654.969 909.728 642.482 917.343 626.748L918.291 624.75C926.38 648.726 973.382 696.649 992.935 715.851C995.195 718.071 997.064 719.903 998.514 721.235L1001.5 724.01L1003.06 725.564C1010.17 732.862 1040.19 765.051 1043.2 794.965Z" fill="black"/>
<path d="M1077.87 1039.77L1072.8 1202.3L1071.9 1231.24C1071.9 1231.24 1011.76 1225.69 955.641 1219.58C910.453 1214.67 867.859 1209.37 861.304 1206.26C852.936 1202.35 835 1199.33 820.858 1197.41C809.923 1195.94 801.332 1195.16 801.332 1195.16C801.332 1195.16 798.124 1196.11 793.187 1197C782.42 1198.94 763.508 1200.52 752.49 1191C738.403 1178.82 775.419 1134.56 784.651 1123.93L786.688 1121.63L783.201 1089.58L774.135 1006.47C774.135 1006.47 768.557 958.602 760.189 932.934C757.951 925.636 756.337 918.164 755.363 910.596C752.254 887.152 753.846 863.328 760.049 840.501C762.699 830.801 764.381 820.865 765.07 810.837C766.465 785.169 845.265 685.965 864.791 676.947C873.574 672.872 880.642 665.86 884.763 657.134C886.123 654.39 887.144 651.492 887.803 648.504C896.171 612.43 917.343 626.748 917.343 626.748C922.447 654.969 1001.47 729.67 1001.47 729.67L1003.03 731.224C1010.87 739.216 1045.79 776.733 1043.31 808.756C1042.82 820.674 1044.6 832.578 1048.58 843.831C1064.66 894.181 1073.9 946.442 1076.06 999.227L1077.87 1039.77Z" fill="#DCE6F2"/>
<path opacity="0.1" d="M965.906 846.773C965.906 846.773 946.38 893.946 931.736 901.577C917.092 909.208 972.879 917.672 965.906 846.773Z" fill="black"/>
<path opacity="0.1" d="M980.55 934.877C980.55 934.877 935.92 940.426 935.92 948.751C935.92 957.076 980.55 934.877 980.55 934.877Z" fill="black"/>
<path opacity="0.1" d="M1027.27 988.988C1027.27 988.988 962.419 1126.35 944.288 1130.51C926.157 1134.67 1027.27 988.988 1027.27 988.988Z" fill="black"/>
<path opacity="0.1" d="M1000.24 736.636L946.603 759.834L881.862 662.545C883.222 659.801 884.243 656.903 884.902 653.915C893.27 617.841 914.442 632.159 914.442 632.159C919.546 660.38 998.57 735.082 998.57 735.082L1000.24 736.636Z" fill="black"/>
<path d="M1003.03 731.086L949.393 754.284L884.651 656.995C886.011 654.251 887.032 651.353 887.692 648.365C896.06 612.291 917.231 626.61 917.231 626.61C922.336 654.831 1001.36 729.532 1001.36 729.532L1003.03 731.086Z" fill="#DCE6F2"/>
<path opacity="0.1" d="M1071.9 1231.24C1071.9 1231.24 1011.76 1225.69 955.641 1219.58L1056.34 1245.81V1276.33C1051.93 1280.3 1048.11 1282.35 1045.63 1281.3C1034.02 1276.44 939.323 1261.18 939.323 1261.18C939.323 1261.18 884.316 1233.43 824.958 1200.13C823.517 1199.34 822.121 1198.47 820.774 1197.52C813.853 1192.85 807.889 1186.91 803.201 1180.01C792.239 1164.22 786.883 1143.94 784.568 1124.04C783.266 1112.64 782.781 1101.16 783.117 1089.69C783.405 1076.68 784.598 1063.71 786.688 1050.87C780.947 1001.13 778.153 951.091 778.32 901.022C779.017 823.324 852.238 795.575 852.238 795.575C986.826 783.782 945.097 1000.23 945.097 1000.23C945.097 1000.23 937.315 1061.27 935.195 1067.52C933.075 1073.76 925.46 1084.17 926.492 1098.74C927.524 1113.3 953.242 1130.73 953.242 1130.73C953.242 1130.73 978.347 1142.44 988.695 1159.78C996.227 1172.58 1045.15 1189.92 1072.8 1202.3L1071.9 1231.24Z" fill="black"/>
<path opacity="0.1" d="M1116.98 495.883C1117.03 500.453 1116.08 504.98 1114.19 509.147C1112.76 512.547 1111.1 515.847 1109.22 519.026C1106.29 524.872 1102.12 530.02 1097.01 534.121C1090.56 538.7 1082.42 539.976 1074.69 541.835C1066.97 543.695 1058.93 546.664 1054.52 553.213C1052.14 557.423 1050.54 562.03 1049.81 566.81C1049.07 571.585 1047.16 576.104 1044.23 579.963C1042.71 581.847 1040.6 583.174 1038.24 583.737C1035.88 584.3 1033.39 584.065 1031.18 583.071C1028.84 581.506 1027.08 579.241 1026.13 576.605C1022.95 569.474 1022.14 561.565 1020.86 553.879C1019.57 546.192 1017.76 538.284 1013.02 532.095C1008.28 525.907 999.881 521.828 992.433 524.242C989.94 525.197 987.667 526.643 985.75 528.493C983.832 530.343 982.311 532.56 981.276 535.009C979.214 539.913 977.799 545.062 977.064 550.327C973.605 569.159 969.523 587.881 964.818 606.491C964.675 607.254 964.36 607.975 963.898 608.6C963.156 609.336 962.155 609.754 961.108 609.766C954.86 610.598 948.863 606.242 942.559 606.713C941.909 606.756 941.265 606.859 940.634 607.019C930.442 589.397 925.941 569.084 927.743 548.832C929.544 528.58 937.56 509.369 950.704 493.801L951.206 493.663C955.399 492.182 959.21 489.793 962.363 486.67C966.39 482.661 970.119 478.367 973.521 473.822L975.753 471.047C982.164 463.363 989.467 456.461 997.51 450.485C999.705 448.696 1002.22 447.339 1004.93 446.489C1007.25 446.04 1009.62 445.965 1011.96 446.267C1021.59 447.417 1031.3 447.779 1041 447.349C1047.75 446.293 1054.56 445.607 1061.39 445.296C1079.04 445.795 1094.11 458.199 1105.26 471.796C1111.26 478.761 1116.62 486.781 1116.98 495.883Z" fill="black"/>
<path d="M927.412 511.506C923.535 517.832 916.534 522.134 913.912 529.071C910.062 539.144 916.562 551.687 910.592 560.677C908.612 563.702 905.348 565.95 904.232 569.418C902.336 575.273 907.524 581.517 906.185 587.539C904.846 593.56 896.869 598.638 898.988 604.521C900.241 607.087 902.439 609.074 905.125 610.071C909.352 612.483 914.216 613.557 919.072 613.151C926.687 611.902 932.349 604.466 940.076 603.911C946.352 603.467 952.349 607.796 958.598 606.991C959.645 606.955 960.64 606.529 961.387 605.798C961.861 605.179 962.177 604.455 962.308 603.689C966.994 585.097 971.085 566.375 974.581 547.524C975.293 542.258 976.7 537.107 978.765 532.207C979.808 529.762 981.333 527.55 983.249 525.701C985.166 523.852 987.435 522.403 989.922 521.44C997.37 519.053 1005.74 523.105 1010.51 529.293C1015.28 535.481 1017.09 543.389 1018.37 551.076C1019.66 558.763 1020.47 566.671 1023.62 573.803C1024.58 576.448 1026.35 578.721 1028.7 580.296C1032.88 582.71 1038.51 580.796 1041.72 577.188C1044.66 573.328 1046.58 568.796 1047.3 564.007C1048.03 559.236 1049.63 554.638 1052.01 550.438C1056.42 543.889 1064.48 540.92 1072.18 539.061C1079.88 537.201 1088 535.897 1094.5 531.319C1099.6 527.222 1103.77 522.084 1106.71 516.251C1110.84 509.091 1114.69 501.322 1114.36 493.08C1113.99 484.089 1108.64 476.07 1102.92 469.077C1091.76 455.48 1076.67 443.076 1059.02 442.604C1052.18 442.888 1045.38 443.574 1038.63 444.657C1028.93 445.091 1019.22 444.72 1009.59 443.548C1007.25 443.269 1004.87 443.353 1002.56 443.797C999.849 444.62 997.335 445.98 995.167 447.793C987.116 453.759 979.804 460.652 973.381 468.328C969.24 473.79 964.749 478.98 959.937 483.867C956.782 486.996 952.972 489.393 948.779 490.888C945.99 491.665 943.2 491.11 940.55 491.97C932.322 494.551 931.234 505.234 927.412 511.506Z" fill="#965D7B"/>
<path opacity="0.1" d="M1196.03 586.956C1173.72 591.035 1155.22 573.081 1144.98 559.983C1141.84 556.006 1138.98 551.815 1136.42 547.441L1213.02 561.815L1216.11 562.398C1216.11 562.398 1230.2 580.74 1196.03 586.956Z" fill="black"/>
<g opacity="0.1">
<path opacity="0.1" d="M906.185 579.602C906.497 575.973 905.943 572.322 904.567 568.947C904.567 569.224 904.316 569.502 904.233 569.779C903.033 573.497 904.651 577.355 905.683 581.212C905.905 580.693 906.073 580.154 906.185 579.602Z" fill="black"/>
<path opacity="0.1" d="M912.824 534.177C912.537 538.014 912.612 541.869 913.047 545.693C913.333 541.855 913.258 538 912.824 534.177Z" fill="black"/>
<path opacity="0.1" d="M1106.55 508.231C1103.61 514.077 1099.44 519.226 1094.33 523.327C1087.89 527.905 1079.77 529.182 1072.01 531.041C1064.26 532.9 1056.25 535.869 1051.85 542.418C1049.46 546.63 1047.87 551.237 1047.13 556.015C1046.41 560.803 1044.49 565.334 1041.55 569.196C1038.35 572.804 1032.71 574.746 1028.53 572.304C1026.19 570.73 1024.41 568.456 1023.45 565.811C1020.3 558.679 1019.46 550.798 1018.21 543.084C1016.95 535.37 1015.08 527.489 1010.34 521.301C1005.6 515.113 997.203 511.034 989.755 513.448C987.265 514.407 984.994 515.854 983.077 517.704C981.16 519.553 979.637 521.768 978.598 524.215C976.533 529.116 975.126 534.266 974.414 539.532C970.936 558.383 966.845 577.105 962.14 595.697C962.01 596.464 961.694 597.187 961.22 597.806C960.473 598.537 959.478 598.963 958.43 598.999C952.182 599.804 946.185 595.475 939.909 595.919C932.182 596.474 926.52 603.911 918.905 605.132C914.047 605.565 909.175 604.489 904.958 602.051C903.019 601.222 901.279 599.992 899.853 598.444C899.201 599.374 898.769 600.439 898.59 601.559C898.411 602.679 898.49 603.824 898.821 604.91C900.05 607.493 902.256 609.488 904.958 610.459C909.175 612.897 914.047 613.973 918.905 613.54C926.52 612.319 932.182 604.882 939.909 604.327C946.185 603.883 952.182 608.212 958.43 607.407C959.478 607.371 960.473 606.945 961.22 606.214C961.694 605.595 962.01 604.872 962.14 604.105C966.826 585.605 970.918 566.884 974.414 547.94C975.126 542.674 976.533 537.524 978.598 532.623C979.637 530.176 981.16 527.961 983.077 526.112C984.994 524.262 987.265 522.815 989.755 521.856C997.203 519.442 1005.57 523.521 1010.34 529.709C1015.11 535.897 1016.92 543.806 1018.21 551.492C1019.49 559.179 1020.3 567.087 1023.45 574.219C1024.41 576.864 1026.19 579.138 1028.53 580.712C1032.71 583.126 1038.35 581.212 1041.55 577.604C1044.49 573.742 1046.41 569.211 1047.13 564.423C1047.87 559.645 1049.46 555.038 1051.85 550.826C1056.25 544.277 1064.32 541.336 1072.01 539.449C1079.71 537.562 1087.83 536.313 1094.33 531.735C1099.44 527.634 1103.61 522.485 1106.55 516.639C1110.68 509.508 1114.52 501.738 1114.19 493.496C1114.14 492.437 1114.02 491.381 1113.86 490.333C1112.51 496.684 1110.03 502.745 1106.55 508.231Z" fill="black"/>
</g>
<path opacity="0.1" d="M1114.3 509.064C1121.45 521.716 1125.69 535.791 1126.71 550.271C1101.86 536.397 1078.49 521.162 1066.69 515.862C1046.13 506.622 969.253 508.009 940.355 508.869C943.378 503.497 946.909 498.424 950.899 493.718C957.502 485.916 965.262 479.16 973.912 473.683C985.366 466.451 998.183 461.619 1011.58 459.482C1024.97 457.346 1038.67 457.949 1051.82 461.255C1064.97 464.561 1077.31 470.501 1088.08 478.712C1098.84 486.923 1107.81 497.231 1114.44 509.008L1114.3 509.064Z" fill="black"/>
<path opacity="0.1" d="M1203 575.19C1189.59 579.297 1167.69 571.361 1144.98 559.984C1141.84 556.006 1138.98 551.815 1136.42 547.441L1213.02 561.815C1218.09 565.256 1219.38 570.168 1203 575.19Z" fill="black"/>
<path d="M1033.21 412.857C1033.21 412.857 959.993 408.694 939.407 448.237L936.088 483.284L930.509 482.674L929.393 506.511C929.393 506.511 1041.3 501.654 1066.77 513.087C1092.24 524.52 1171.37 582.127 1203.09 572.415C1234.8 562.703 1200.3 553.684 1200.3 553.684C1200.3 553.684 1156.64 535.287 1156.64 520.857C1156.64 506.427 1145.82 430.2 1033.21 412.857Z" fill="#444053"/>
<path opacity="0.1" d="M891.987 1712.08C891.987 1712.08 938.71 1757.17 958.933 1753.7C958.933 1753.7 901.75 1748.85 891.987 1712.08Z" fill="black"/>
<path opacity="0.1" d="M882.224 1732.97C882.224 1732.97 886.408 1756.17 897.566 1753.9C908.724 1751.62 882.224 1732.97 882.224 1732.97Z" fill="black"/>
<path opacity="0.1" d="M955.446 2120.69C955.446 2120.69 889.114 2172.02 900.299 2173.41C911.485 2174.8 955.446 2120.69 955.446 2120.69Z" fill="black"/>
<path d="M1044.18 1101.82L1258.96 1067.05V1269.34L1054.89 1258.71L1044.18 1101.82Z" fill="#6C63FF"/>
<path opacity="0.05" d="M1044.18 1101.82L1258.96 1067.05V1269.34L1054.89 1258.71L1044.18 1101.82Z" fill="black"/>
<path d="M1258.96 1067.05L1516.53 1086.22L1502.28 1262.26L1258.96 1269.34V1067.05Z" fill="#6C63FF"/>
<path opacity="0.1" d="M1258.96 1067.05L1516.53 1086.22L1502.28 1262.26L1258.96 1269.34V1067.05Z" fill="black"/>
<path d="M1338.15 1005.3L1258.96 1067.05L1516.53 1086.22L1558.62 1023.04L1338.15 1005.3Z" fill="#6C63FF"/>
<path d="M966.408 1034.39L1159.77 1010.97L1258.96 1067.05L1044.18 1101.82L966.408 1034.39Z" fill="#6C63FF"/>
<path d="M1306.04 1119.58V1396.15L1205.43 1385.89L1161.67 1381.45L1148.33 1380.06L1104.59 1375.59L1044.18 1369.43V1101.82L1258.93 1116.36L1306.04 1119.58Z" fill="#6C63FF"/>
<path d="M1516.53 1086.22V1355.94L1435.89 1371.35L1396.67 1378.84L1306.04 1396.15V1119.58L1516.53 1086.22Z" fill="#6C63FF"/>
<path opacity="0.05" d="M1516.53 1086.22V1355.94L1435.89 1371.35L1396.67 1378.84L1306.04 1396.15V1119.58L1516.53 1086.22Z" fill="black"/>
<path d="M966.408 1160.03L1044.18 1101.82L1306.04 1119.58L1267.49 1184.18L966.408 1160.03Z" fill="#6C63FF"/>
<path opacity="0.1" d="M966.408 1160.03L1044.18 1101.82L1306.04 1119.58L1267.49 1184.18L966.408 1160.03Z" fill="white"/>
<path d="M1516.53 1086.22L1306.04 1119.58L1374.55 1180.62L1600.02 1143L1516.53 1086.22Z" fill="#6C63FF"/>
<path opacity="0.1" d="M1516.53 1086.22L1306.04 1119.58L1374.55 1180.62L1600.02 1143L1516.53 1086.22Z" fill="white"/>
<path opacity="0.1" d="M1435.89 1371.35L1396.67 1378.84V1321.2L1433.41 1311.99L1435.89 1371.35Z" fill="white"/>
<path opacity="0.1" d="M1205.43 1347.76V1385.89L1161.67 1381.45V1347.76H1205.43Z" fill="white"/>
<path opacity="0.1" d="M1148.33 1359.77V1380.06L1104.59 1375.59V1359.77H1148.33Z" fill="white"/>
<path opacity="0.1" d="M1279.71 1327.53C1249.73 1365.68 1150.7 1339.32 1150.7 1339.32L1077.12 1262.96L1067.13 1252.61L1086.66 1216.53C1086.66 1216.53 1092.24 1218.36 1101.55 1221.58C1150.87 1238.73 1304.96 1295.42 1279.71 1327.53Z" fill="black"/>
<path d="M1276.92 1321.98C1246.94 1360.13 1147.91 1333.77 1147.91 1333.77L1074.33 1257.41L1064.34 1247.06L1083.87 1210.98C1083.87 1210.98 1089.45 1212.81 1098.76 1216.03C1148.08 1233.18 1302.17 1289.87 1276.92 1321.98Z" fill="#EFB7B9"/>
<path opacity="0.1" d="M1098.65 1216.03C1094.58 1227.69 1084.23 1244.95 1074.22 1257.41L1064.23 1247.06L1083.76 1210.98C1083.76 1210.98 1089.36 1212.81 1098.65 1216.03Z" fill="black"/>
<path d="M855.028 784.475C855.028 784.475 781.806 812.225 781.109 889.923C780.942 939.991 783.737 990.027 789.477 1039.77C789.477 1039.77 768.557 1155.62 827.831 1188.92C887.106 1222.22 942.196 1249.97 942.196 1249.97C942.196 1249.97 1036.9 1265.23 1048.53 1270.09C1060.16 1274.94 1100.58 1212.51 1094.3 1202.1C1088.03 1191.7 1001.81 1166.03 991.568 1148.68C981.331 1131.34 956.115 1119.66 956.115 1119.66C956.115 1119.66 930.397 1102.2 929.365 1087.64C928.333 1073.07 935.92 1062.66 938.068 1056.42C940.216 1050.17 947.998 989.126 947.998 989.126C947.998 989.126 989.616 772.543 855.028 784.475Z" fill="#DCE6F2"/>
<path opacity="0.1" d="M888.5 1041.71C888.5 1041.71 789.477 1052.81 797.148 1087.5C797.148 1087.5 834.777 1052.51 888.5 1041.71Z" fill="black"/>
<path opacity="0.1" d="M888.5 1055.59C888.5 1055.59 832.294 1096.52 842.615 1099.29C852.936 1102.07 888.5 1055.59 888.5 1055.59Z" fill="black"/>
<path opacity="0.1" d="M913.605 1072.24C913.605 1072.24 897.566 1100.93 906.632 1099.43C915.697 1097.93 913.605 1072.24 913.605 1072.24Z" fill="black"/>
<path d="M1944.62 449.874C1944.62 449.874 1838.62 443.52 1851.01 517.499C1851.01 517.499 1848.52 530.569 1860.44 536.508C1860.44 536.508 1860.63 530.958 1871.31 532.872C1875.12 533.509 1878.99 533.696 1882.83 533.427C1888.05 533.081 1893.01 531.044 1896.95 527.628C1896.95 527.628 1926.77 515.39 1938.37 466.885C1938.37 466.885 1946.96 456.284 1946.74 453.565L1928.83 461.196C1928.83 461.196 1934.94 474.044 1930.11 484.727C1930.11 484.727 1929.56 461.668 1926.1 462.195C1925.4 462.195 1916.81 466.663 1916.81 466.663C1916.81 466.663 1927.32 489.028 1919.38 505.317C1919.38 505.317 1922.39 477.735 1913.52 468.272L1900.91 475.598C1900.91 475.598 1913.21 498.713 1904.87 517.583C1904.87 517.583 1907.02 488.64 1898.26 477.374L1886.82 486.226C1886.82 486.226 1898.4 509.036 1891.34 524.686C1891.34 524.686 1890.42 490.999 1884.34 488.446C1884.34 488.446 1874.35 497.215 1872.85 500.822C1872.85 500.822 1880.74 517.472 1875.83 526.102C1875.83 526.102 1872.82 503.652 1870.25 503.541C1870.25 503.541 1860.3 518.415 1859.26 528.516C1859.75 519.099 1862.7 509.972 1867.83 502.043C1862.09 503.123 1856.79 505.853 1852.6 509.896C1852.6 509.896 1854.13 499.379 1870.28 498.463C1870.28 498.463 1878.65 487.169 1880.71 486.476C1880.71 486.476 1864.65 485.144 1854.91 489.445C1854.91 489.445 1863.48 479.538 1883.67 483.895L1894.83 474.738C1894.83 474.738 1873.68 471.963 1864.7 475.043C1864.7 475.043 1875.02 466.274 1897.87 472.656L1910.14 465.358C1910.14 465.358 1892.12 461.473 1881.38 462.889C1881.38 462.889 1892.71 456.812 1913.74 463.388L1922.53 459.476C1922.53 459.476 1909.31 456.895 1905.46 456.479C1901.61 456.062 1901.38 455.008 1901.38 455.008C1909.75 453.623 1918.34 454.584 1926.18 457.783C1926.18 457.783 1945.01 451.04 1944.62 449.874Z" fill="#6C63FF"/>
<path opacity="0.1" d="M2266.68 819.883C2266.68 819.883 2160.69 813.529 2173.07 887.508C2173.07 887.508 2170.59 900.578 2182.5 906.517C2182.5 906.517 2182.69 900.967 2193.4 902.882C2197.21 903.519 2201.08 903.705 2204.92 903.437C2210.08 903.065 2214.97 901.039 2218.87 897.665C2218.87 897.665 2248.72 885.4 2260.32 836.894C2260.32 836.894 2268.89 826.321 2268.55 823.602L2250.64 831.205C2250.64 831.205 2256.75 844.053 2251.95 854.737C2251.95 854.737 2251.37 831.677 2247.94 832.204C2247.24 832.204 2238.62 836.672 2238.62 836.672C2238.62 836.672 2249.16 859.065 2241.21 875.326C2241.21 875.326 2244.23 847.744 2235.33 838.281L2222.86 845.524C2222.86 845.524 2235.16 868.639 2226.82 887.508C2226.82 887.508 2228.97 858.566 2220.21 847.3L2208.8 856.179C2208.8 856.179 2220.35 878.962 2213.32 894.612C2213.32 894.612 2212.4 860.925 2206.32 858.372C2206.32 858.372 2196.33 867.14 2194.8 870.748C2194.8 870.748 2202.72 887.397 2197.81 896.027C2197.81 896.027 2194.8 873.578 2192.23 873.467C2192.23 873.467 2182.28 888.341 2181.24 898.442C2181.74 889.024 2184.7 879.899 2189.83 871.969C2184.09 873.052 2178.78 875.781 2174.58 879.822C2174.58 879.822 2176.14 869.305 2192.29 868.389C2192.29 868.389 2200.52 857.095 2202.72 856.402C2202.72 856.402 2186.65 855.07 2176.92 859.371C2176.92 859.371 2185.48 849.464 2205.65 853.96L2216.81 844.802C2216.81 844.802 2195.64 842.027 2186.68 845.108C2186.68 845.108 2197 836.339 2219.85 842.721L2232.12 835.423C2232.12 835.423 2214.07 831.566 2203.33 832.953C2203.33 832.953 2214.69 826.876 2235.72 833.453L2244.51 829.54C2244.51 829.54 2231.28 826.96 2227.41 826.543C2223.53 826.127 2223.33 825.073 2223.33 825.073C2231.71 823.687 2240.3 824.648 2248.16 827.847C2248.16 827.847 2267.02 821.049 2266.68 819.883Z" fill="#6C63FF"/>
<path opacity="0.1" d="M1622.75 754.201C1622.75 754.201 1647.16 651.279 1571.73 650.918C1571.73 650.918 1559.21 646.256 1551.32 656.912C1551.32 656.912 1556.7 658.05 1553.04 668.206C1551.78 671.797 1550.94 675.522 1550.53 679.306C1549.99 684.464 1551.16 689.656 1553.85 694.096C1553.85 694.096 1560.91 725.453 1606.85 745.099C1606.85 745.099 1615.89 755.311 1618.62 755.422L1614.16 736.58C1614.16 736.58 1600.38 740.382 1590.62 733.805C1590.62 733.805 1613.57 737.163 1613.6 733.805C1613.6 733.111 1610.81 723.926 1610.81 723.926C1610.81 723.926 1586.85 730.42 1572.07 719.847C1572.07 719.847 1598.87 727.506 1609.78 720.43L1604.76 706.777C1604.76 706.777 1579.66 714.908 1562.47 703.503C1562.47 703.503 1590.79 710.551 1603.45 703.891L1596.61 691.182C1596.61 691.182 1572.07 698.619 1557.76 689.045C1557.76 689.045 1591.23 693.874 1594.86 688.379C1594.86 688.379 1587.88 677.086 1584.56 674.977C1584.56 674.977 1566.82 679.916 1559.01 673.617C1559.01 673.617 1581.75 674.477 1582.28 672.091C1582.28 672.091 1569.25 659.798 1559.32 657.023C1568.57 659.119 1577.12 663.575 1584.12 669.954C1584.02 664.138 1582.21 658.478 1578.93 653.665C1578.93 653.665 1589.08 656.995 1587.3 673.09C1587.3 673.09 1597.06 683.079 1597.37 685.355C1597.37 685.355 1601.41 669.843 1598.82 659.548C1598.82 659.548 1607.19 669.649 1599.29 688.657L1606.43 701.283C1606.43 701.283 1612.9 681.026 1611.26 671.702C1611.26 671.702 1618.2 683.301 1607.97 704.613L1613.13 717.905C1613.13 717.905 1620.02 700.867 1620.46 690.155C1620.46 690.155 1624.56 702.31 1614.44 721.817L1616.84 731.086C1616.84 731.086 1621.64 718.571 1622.7 714.852C1623.76 711.134 1624.84 711.106 1624.84 711.106C1624.8 719.548 1622.4 727.812 1617.9 734.971C1617.9 734.971 1621.55 754.34 1622.75 754.201Z" fill="#6C63FF"/>
<path opacity="0.1" d="M1390.62 789.276C1390.62 789.276 1305.49 725.924 1275.05 794.548C1275.05 794.548 1265.77 804.122 1272.43 815.582C1272.43 815.582 1275.61 811.115 1283.59 818.524C1286.42 821.139 1289.54 823.412 1292.91 825.295C1297.46 827.818 1302.72 828.793 1307.88 828.07C1307.88 828.07 1339.57 834.147 1376.06 799.987C1376.06 799.987 1389.08 795.825 1390.31 793.383L1371.09 790.025C1371.09 790.025 1369.08 804.094 1359.18 810.393C1359.18 810.393 1371.43 790.802 1368.25 789.387C1367.61 789.082 1358.01 787.999 1358.01 787.999C1358.01 787.999 1354.44 812.474 1338.82 821.715C1338.82 821.715 1356.59 800.32 1354.38 787.555L1339.8 786.779C1339.8 786.779 1337.31 812.835 1319.91 824.046C1319.91 824.046 1337.68 801.042 1336.64 786.834L1322.19 787.999C1322.19 787.999 1319.27 813.335 1304.73 822.547C1304.73 822.547 1322.56 793.91 1318.9 788.471C1318.9 788.471 1305.71 790.33 1302.45 792.495C1302.45 792.495 1299.91 810.643 1290.98 815.249C1290.98 815.249 1300.88 794.854 1298.88 793.438C1298.88 793.438 1282.33 800.403 1275.83 808.34C1281.46 800.741 1288.98 794.734 1297.65 790.913C1292.25 788.682 1286.32 788.065 1280.58 789.137C1280.58 789.137 1287.66 781.201 1301.66 789.276C1301.66 789.276 1314.77 784.364 1317.01 784.975C1317.01 784.975 1304.31 775.068 1293.8 773.348C1293.8 773.348 1306.46 769.74 1320.83 784.448L1335.3 782.977C1335.3 782.977 1319.21 769.102 1309.98 766.771C1309.98 766.771 1323.45 765.079 1338.99 782.894L1353.27 783.532C1353.27 783.532 1340.35 770.434 1330.62 765.717C1330.62 765.717 1343.42 766.827 1357.37 783.837L1366.88 785.363C1366.88 785.363 1357.26 775.984 1354.24 773.542C1351.23 771.1 1351.65 770.073 1351.65 770.073C1359.41 773.492 1366.06 778.987 1370.87 785.946C1370.87 785.946 1390.26 790.414 1390.62 789.276Z" fill="#6C63FF"/>
<path opacity="0.1" d="M1674.05 200.686C1674.05 200.686 1588.92 137.306 1558.48 205.958C1558.48 205.958 1549.2 215.531 1555.86 226.992C1555.86 226.992 1559.04 222.524 1567.02 229.933C1569.86 232.535 1573 234.798 1576.36 236.676C1580.92 239.202 1586.18 240.176 1591.34 239.451C1591.34 239.451 1623.03 245.528 1659.52 211.341C1659.52 211.341 1672.54 207.207 1673.74 204.737L1654.52 201.435C1654.52 201.435 1652.54 215.504 1642.61 221.803C1642.61 221.803 1654.89 202.212 1651.71 200.797C1651.06 200.491 1641.47 199.409 1641.47 199.409C1641.47 199.409 1637.79 223.94 1622.17 233.125C1622.17 233.125 1639.91 211.73 1637.73 198.965L1623.14 198.188C1623.14 198.188 1620.63 224.245 1603.25 235.428C1603.25 235.428 1621.02 212.424 1619.99 198.216L1605.57 199.381C1605.57 199.381 1602.61 224.744 1588.08 233.957C1588.08 233.957 1605.93 205.32 1602.28 199.881C1602.28 199.881 1589.08 201.74 1585.82 203.905C1585.82 203.905 1583.28 222.053 1574.36 226.659C1574.36 226.659 1584.26 206.263 1582.25 204.82C1582.25 204.82 1565.71 211.813 1559.21 219.749C1564.82 212.142 1572.34 206.134 1581.02 202.323C1575.62 200.075 1569.67 199.458 1563.92 200.547C1563.92 200.547 1571.04 192.611 1585.04 200.686C1585.04 200.686 1598.15 195.746 1600.38 196.384C1600.38 196.384 1587.69 186.478 1577.17 184.73C1577.17 184.73 1589.81 181.15 1604.17 195.83L1618.65 194.359C1618.65 194.359 1602.58 180.484 1593.32 178.125C1593.32 178.125 1606.8 176.46 1622.36 194.276L1636.64 194.886C1636.64 194.886 1623.73 181.788 1613.97 177.099C1613.97 177.099 1626.8 178.209 1640.74 195.219L1650.23 196.745C1650.23 196.745 1640.58 187.477 1637.56 185.091C1634.55 182.704 1634.97 181.65 1634.97 181.65C1642.73 185.064 1649.39 190.56 1654.19 197.522C1654.19 197.522 1673.57 201.74 1674.05 200.686Z" fill="#6C63FF"/>
<path opacity="0.1" d="M1999.35 280.964C1999.35 280.964 1965.32 180.762 1901.13 220.138C1901.13 220.138 1888.02 222.913 1886.99 235.983C1886.99 235.983 1892.15 234.096 1894.44 244.64C1895.29 248.391 1896.57 252.032 1898.26 255.49C1900.57 260.145 1904.32 263.931 1908.97 266.285C1908.97 266.285 1931.62 289.178 1981.16 281.603C1981.16 281.603 1994.24 285.543 1996.64 284.183L1982.69 270.558C1982.69 270.558 1973.04 281.02 1961.27 280.604C1961.27 280.604 1982.55 271.391 1980.8 268.422C1980.43 267.839 1973.15 261.54 1973.15 261.54C1973.15 261.54 1956.25 279.66 1938.12 278.467C1938.12 278.467 1964.93 270.864 1970.39 259.042L1958.85 250.19C1958.85 250.19 1941.94 270.225 1921.22 269.615C1921.22 269.615 1949.11 260.707 1956.17 248.387L1943.62 241.2C1943.62 241.2 1926.88 260.43 1909.53 259.819C1909.53 259.819 1940.55 246.305 1940.63 239.757C1940.63 239.757 1928.72 233.846 1924.79 233.791C1924.79 233.791 1912.35 247.304 1902.47 246.083C1902.47 246.083 1922.22 234.845 1921.38 232.542C1921.38 232.542 1903.81 228.962 1893.91 231.848C1902.86 228.746 1912.48 228.028 1921.8 229.767C1918.62 224.88 1914.07 221.023 1908.72 218.667C1908.72 218.667 1919.1 216.142 1926.04 230.683C1926.04 230.683 1939.65 234.04 1941.1 235.788C1941.1 235.788 1936.31 220.499 1928.64 213.117C1928.64 213.117 1941.1 217.307 1944.51 237.592L1957.28 244.529C1957.28 244.529 1952.01 223.967 1945.65 216.78C1945.65 216.78 1957.73 222.996 1960.35 246.444L1971.79 255.019C1971.79 255.019 1968.61 236.926 1963.25 227.547C1963.25 227.547 1973.18 235.705 1974.97 257.599L1981.91 264.204C1981.91 264.204 1979.35 251.051 1978.29 247.332C1977.23 243.614 1978.09 243.364 1978.09 243.364C1982.53 250.563 1984.87 258.841 1984.87 267.284C1984.87 267.284 1998.37 281.686 1999.35 280.964Z" fill="#6C63FF"/>
<path opacity="0.1" d="M1777.26 285.904C1777.26 285.904 1671.54 274.194 1680.27 348.811C1680.27 348.811 1677.12 361.743 1688.64 368.236C1688.64 368.236 1689.11 362.686 1699.79 365.184C1703.57 365.992 1707.43 366.373 1711.29 366.321C1716.5 366.228 1721.55 364.445 1725.65 361.243C1725.65 361.243 1756.08 350.504 1770.28 302.637C1770.28 302.637 1779.38 292.508 1779.18 289.761L1760.91 296.476C1760.91 296.476 1766.49 309.602 1760.91 320.035C1760.91 320.035 1761.5 296.976 1758.12 297.337C1757.42 297.337 1748.61 301.332 1748.61 301.332C1748.61 301.332 1757.98 324.226 1749.22 340.181C1749.22 340.181 1753.63 312.765 1745.23 302.886L1732.26 309.546C1732.26 309.546 1743.42 333.272 1734.08 351.697C1734.08 351.697 1737.7 322.894 1729.53 311.211L1717.67 319.536C1717.67 319.536 1728.05 342.873 1720.21 358.163C1720.21 358.163 1721.02 324.475 1715.08 321.617C1715.08 321.617 1704.65 329.942 1702.95 333.383C1702.95 333.383 1710 350.31 1704.68 358.773C1704.68 358.773 1702.81 336.213 1700.35 335.991C1700.35 335.991 1689.64 350.338 1688.08 360.466C1689.05 351.076 1692.47 342.102 1698.01 334.437C1692.22 335.233 1686.79 337.692 1682.39 341.513C1682.39 341.513 1684.45 331.107 1700.63 330.996C1700.63 330.996 1709.42 320.146 1711.79 319.564C1711.79 319.564 1695.81 317.427 1685.85 321.229C1685.85 321.229 1694.91 311.738 1714.83 317.261L1726.57 308.686C1726.57 308.686 1705.35 304.413 1696.36 307.188C1696.36 307.188 1707.13 298.863 1729.61 306.494L1742.25 299.806C1742.25 299.806 1724.42 295.033 1713.63 295.894C1713.63 295.894 1725.26 290.344 1745.93 298.03L1754.91 294.562C1754.91 294.562 1741.83 291.315 1737.98 290.704C1734.13 290.094 1733.99 289.039 1733.99 289.039C1742.43 288.077 1750.96 289.46 1758.65 293.035C1758.65 293.035 1777.45 287.069 1777.26 285.904Z" fill="#6C63FF"/>
<path opacity="0.1" d="M2702.22 1102.2C2702.22 1102.2 2596.56 1090.49 2605.29 1165.03C2605.29 1165.03 2602.13 1177.96 2613.65 1184.45C2613.65 1184.45 2614.13 1178.9 2624.81 1181.37C2628.58 1182.21 2632.44 1182.59 2636.3 1182.51C2641.52 1182.43 2646.57 1180.65 2650.67 1177.43C2650.67 1177.43 2681.1 1166.69 2695.16 1118.85C2695.16 1118.85 2704.25 1108.7 2704.06 1105.98L2685.79 1112.67C2685.79 1112.67 2691.37 1125.82 2685.79 1136.25C2685.79 1136.25 2686.37 1113.17 2683 1113.55C2682.3 1113.55 2673.49 1117.52 2673.49 1117.52C2673.49 1117.52 2682.86 1140.42 2674.1 1156.37C2674.1 1156.37 2678.51 1128.98 2670.11 1119.08L2657.14 1125.76C2657.14 1125.76 2668.3 1149.49 2658.98 1167.92C2658.98 1167.92 2662.58 1139.11 2654.41 1127.4L2642.55 1135.73C2642.55 1135.73 2652.93 1159.06 2645.09 1174.33C2645.09 1174.33 2645.9 1140.64 2639.96 1137.81C2639.96 1137.81 2629.55 1146.13 2627.82 1149.57C2627.82 1149.57 2634.91 1166.5 2629.55 1174.96C2629.55 1174.96 2627.68 1152.4 2625.23 1152.18C2625.23 1152.18 2614.52 1166.53 2612.96 1176.66C2613.92 1167.27 2617.35 1158.29 2622.89 1150.63C2617.09 1151.41 2611.66 1153.87 2607.27 1157.7C2607.27 1157.7 2609.33 1147.27 2625.51 1147.16C2625.51 1147.16 2634.32 1136.31 2636.67 1135.75C2636.67 1135.75 2620.68 1133.59 2610.73 1137.39C2610.73 1137.39 2619.79 1127.93 2639.73 1133.45L2651.45 1124.88C2651.45 1124.88 2630.47 1120.94 2621.35 1123.65C2621.35 1123.65 2632.12 1115.33 2654.6 1122.93L2667.24 1116.27C2667.24 1116.27 2649.41 1111.5 2638.62 1112.36C2638.62 1112.36 2650.25 1106.81 2670.92 1114.5L2679.9 1111C2679.9 1111 2666.82 1107.75 2662.97 1107.17C2659.12 1106.59 2658.98 1105.51 2658.98 1105.51C2667.41 1104.53 2675.95 1105.9 2683.64 1109.48C2683.64 1109.48 2702.5 1103.4 2702.22 1102.2Z" fill="#6C63FF"/>
<path opacity="0.1" d="M2863.75 1200.38C2863.75 1200.38 2758.09 1188.7 2766.82 1263.21C2766.82 1263.21 2763.7 1276.14 2775.19 1282.63C2775.19 1282.63 2775.66 1277.08 2786.35 1279.58C2790.11 1280.39 2793.96 1280.77 2797.81 1280.69C2803 1280.58 2808.02 1278.81 2812.12 1275.64C2812.12 1275.64 2842.52 1264.9 2856.58 1217.03C2856.58 1217.03 2865.7 1206.9 2865.48 1204.16L2847.21 1210.84C2847.21 1210.84 2852.79 1224 2847.21 1234.43C2847.21 1234.43 2847.8 1211.37 2844.42 1211.73C2843.72 1211.73 2834.91 1215.7 2834.91 1215.7C2834.91 1215.7 2844.28 1238.59 2835.52 1254.55C2835.52 1254.55 2839.93 1227.16 2831.53 1217.28L2818.56 1223.94C2818.56 1223.94 2829.72 1247.67 2820.4 1266.09C2820.4 1266.09 2824 1237.29 2815.83 1225.61L2803.97 1233.93C2803.97 1233.93 2814.35 1257.27 2806.54 1272.56C2806.54 1272.56 2807.32 1238.84 2801.38 1236.01C2801.38 1236.01 2790.98 1244.34 2789.25 1247.78C2789.25 1247.78 2796.33 1264.7 2790.98 1273.17C2790.98 1273.17 2789.11 1250.61 2786.65 1250.39C2786.65 1250.39 2775.94 1264.73 2774.41 1274.86C2775.37 1265.47 2778.79 1256.5 2784.31 1248.83C2778.52 1249.63 2773.09 1252.09 2768.69 1255.91C2768.69 1255.91 2770.78 1245.47 2786.96 1245.39C2786.96 1245.39 2795.75 1234.54 2798.12 1233.96C2798.12 1233.96 2782.13 1231.82 2772.18 1235.62C2772.18 1235.62 2781.24 1226.13 2801.18 1231.66L2812.9 1223.08C2812.9 1223.08 2791.92 1219.14 2782.8 1221.86C2782.8 1221.86 2793.57 1213.53 2816.05 1221.17L2828.69 1214.48C2828.69 1214.48 2810.86 1209.71 2800.07 1210.57C2800.07 1210.57 2811.7 1205.02 2832.37 1212.7L2841.35 1209.23C2841.35 1209.23 2828.27 1205.99 2824.45 1205.38C2820.63 1204.77 2820.43 1203.71 2820.43 1203.71C2828.86 1202.75 2837.4 1204.13 2845.09 1207.71C2845.09 1207.71 2864.03 1201.57 2863.75 1200.38Z" fill="#6C63FF"/>
<path opacity="0.1" d="M2505.12 373.425C2505.12 373.425 2419.99 310.073 2389.55 378.697C2389.55 378.697 2380.27 388.271 2386.93 399.731C2386.93 399.731 2390.11 395.264 2398.09 402.673C2400.92 405.288 2404.04 407.561 2407.41 409.444C2411.96 411.965 2417.22 412.939 2422.39 412.218C2422.39 412.218 2454.07 418.296 2490.59 384.136C2490.59 384.136 2503.58 379.974 2504.81 377.532L2485.65 374.091C2485.65 374.091 2483.64 388.16 2473.74 394.459C2473.74 394.459 2485.98 374.868 2482.8 373.453C2482.16 373.147 2472.59 372.065 2472.59 372.065C2472.59 372.065 2469 396.54 2453.38 405.781C2453.38 405.781 2471.14 384.386 2468.94 371.621L2454.35 370.844C2454.35 370.844 2451.87 396.901 2434.46 408.112C2434.46 408.112 2452.26 385.107 2451.2 370.9L2436.75 372.065C2436.75 372.065 2433.96 397.4 2419.29 406.613C2419.29 406.613 2437.14 377.976 2433.46 372.537C2433.46 372.537 2420.27 374.396 2417 376.561C2417 376.561 2414.49 394.709 2405.57 399.315C2405.57 399.315 2415.44 378.919 2413.43 377.504C2413.43 377.504 2396.89 384.469 2390.39 392.405C2396.01 384.807 2403.53 378.8 2412.2 374.979C2406.81 372.748 2400.88 372.131 2395.13 373.203C2395.13 373.203 2402.25 365.267 2416.25 373.342C2416.25 373.342 2429.33 368.43 2431.56 369.041C2431.56 369.041 2418.87 359.134 2408.36 357.414C2408.36 357.414 2421.02 353.806 2435.38 368.513L2449.86 367.043C2449.86 367.043 2433.79 353.168 2424.53 350.837C2424.53 350.837 2438.01 349.144 2453.54 366.959L2467.85 367.598C2467.85 367.598 2454.91 354.5 2445.17 349.783C2445.17 349.783 2458.01 350.893 2471.93 367.903L2481.44 369.429C2481.44 369.429 2471.81 360.05 2468.8 357.608C2465.79 355.166 2466.23 354.361 2466.23 354.361C2473.98 357.785 2480.63 363.28 2485.43 370.234C2485.43 370.234 2504.76 374.563 2505.12 373.425Z" fill="#6C63FF"/>
<path opacity="0.1" d="M2570.89 830.789C2570.89 830.789 2541.55 729.143 2475.55 765.633C2475.55 765.633 2462.33 767.659 2460.68 780.812C2460.68 780.812 2465.93 779.175 2467.74 789.803C2468.41 793.621 2469.54 797.347 2471.09 800.903C2473.16 805.685 2476.74 809.661 2481.3 812.224C2481.3 812.224 2502.89 836.089 2552.71 830.761C2552.71 830.761 2565.59 835.256 2568.05 834.035L2554.85 819.772C2554.85 819.772 2544.73 829.818 2533.01 828.874C2533.01 828.874 2554.66 820.549 2552.98 817.58C2552.65 816.97 2545.68 810.338 2545.68 810.338C2545.68 810.338 2527.99 827.709 2509.92 825.683C2509.92 825.683 2537.06 819.301 2543.03 807.812L2531.87 798.433C2531.87 798.433 2514.07 817.691 2493.4 816.193C2493.4 816.193 2521.52 808.506 2529.28 796.546L2517.06 788.804C2517.06 788.804 2499.35 807.257 2482.16 805.87C2482.16 805.87 2513.77 793.743 2514.16 787.222C2514.16 787.222 2502.5 780.785 2498.56 780.563C2498.56 780.563 2485.54 793.494 2475.64 791.829C2475.64 791.829 2495.89 781.478 2495.16 779.147C2495.16 779.147 2477.76 774.791 2467.74 777.205C2476.81 774.529 2486.42 774.252 2495.64 776.4C2492.68 771.379 2488.32 767.327 2483.08 764.745C2483.08 764.745 2493.57 762.664 2499.82 777.51C2499.82 777.51 2513.24 781.451 2514.63 783.282C2514.63 783.282 2510.53 767.77 2503.19 760.084C2503.19 760.084 2515.47 764.801 2517.95 785.224L2530.39 792.745C2530.39 792.745 2526.04 771.932 2520.01 764.607C2520.01 764.607 2531.79 771.35 2533.38 794.881L2544.53 803.955C2544.53 803.955 2542.16 785.752 2537.25 776.206C2537.25 776.206 2546.82 784.808 2547.6 806.73L2554.24 813.667C2554.24 813.667 2552.29 800.403 2551.45 796.629C2550.61 792.855 2551.45 792.328 2551.45 792.328C2555.58 799.709 2557.56 808.088 2557.17 816.526C2557.17 816.526 2569.89 831.455 2570.89 830.789Z" fill="#6C63FF"/>
<path opacity="0.1" d="M1917 1059.83C1917 1059.83 1860.02 970.534 1807.1 1023.98C1807.1 1023.98 1795 1029.53 1797.12 1042.71C1797.12 1042.71 1801.72 1039.66 1806.46 1049.37C1808.16 1052.81 1810.28 1056.04 1812.76 1058.97C1816.09 1062.98 1820.65 1065.79 1825.74 1066.96C1825.74 1066.96 1853.21 1083.83 1899.51 1064.74C1899.51 1064.74 1913.15 1065.46 1915.16 1063.61L1898.43 1053.62C1898.43 1053.62 1891.54 1066.1 1880.02 1068.46C1880.02 1068.46 1898.48 1054.59 1896 1052.03C1895.53 1051.53 1886.93 1047.15 1886.93 1047.15C1886.93 1047.15 1874.86 1068.74 1856.95 1071.87C1856.95 1071.87 1881.19 1058.14 1883.7 1045.43L1870.34 1039.57C1870.34 1039.57 1858.71 1063.02 1838.46 1067.32C1838.46 1067.32 1863.28 1052.09 1867.33 1038.44L1853.38 1034.44C1853.38 1034.44 1841.61 1057.11 1824.73 1060.58C1824.73 1060.58 1851.62 1040.1 1850.14 1033.72C1850.14 1033.72 1837.14 1030.81 1833.41 1031.69C1833.41 1031.69 1824.56 1047.76 1814.58 1048.93C1814.58 1048.93 1831.09 1033.33 1829.72 1031.28C1829.72 1031.28 1811.79 1031.97 1802.86 1037.1C1810.82 1031.97 1820 1029.01 1829.47 1028.5C1825.23 1024.51 1819.91 1021.84 1814.16 1020.82C1814.16 1020.82 1823.62 1015.9 1833.69 1028.39C1833.69 1028.39 1847.63 1028.39 1849.56 1029.78C1849.56 1029.78 1841.19 1015.9 1832.01 1010.72C1832.01 1010.72 1845.12 1011.83 1853.27 1030.72L1867.35 1034.44C1867.35 1034.44 1857.28 1015.71 1849.45 1010.35C1849.45 1010.35 1862.64 1013.52 1870.81 1035.69L1883.98 1041.24C1883.98 1041.24 1876.56 1024.45 1869.11 1016.6C1869.11 1016.6 1880.71 1022.15 1887.66 1042.99L1896.03 1047.79C1896.03 1047.79 1890.45 1035.61 1888.47 1032.25C1886.49 1028.89 1887.27 1028.11 1887.27 1028.11C1893.31 1034.05 1897.56 1041.53 1899.57 1049.73C1899.57 1049.73 1916.25 1060.78 1917 1059.83Z" fill="#6C63FF"/>
<path d="M2291.54 603.578C2291.54 603.578 2237.34 512.588 2182.75 564.368C2182.75 564.368 2170.48 569.64 2172.21 582.793C2172.21 582.793 2176.86 579.852 2181.33 589.703C2182.92 593.205 2184.94 596.503 2187.32 599.526C2190.53 603.618 2195 606.545 2200.04 607.851C2200.04 607.851 2226.96 625.555 2273.85 607.851C2273.85 607.851 2287.46 608.989 2289.53 607.185L2273.15 596.696C2273.15 596.696 2265.9 608.933 2254.3 610.959C2254.3 610.959 2273.18 597.556 2270.81 595.031C2270.31 594.504 2261.88 589.842 2261.88 589.842C2261.88 589.842 2249.14 611.07 2231.2 613.651C2231.2 613.651 2255.86 600.664 2258.73 588.066L2245.57 581.905C2245.57 581.905 2233.21 605.021 2212.82 608.711C2212.82 608.711 2238.12 594.254 2242.58 580.74L2228.8 576.3C2228.8 576.3 2216.31 598.5 2199.35 601.552C2199.35 601.552 2226.85 581.905 2225.57 575.495C2225.57 575.495 2212.68 572.165 2208.83 572.942C2208.83 572.942 2199.49 588.732 2189.47 589.592C2189.47 589.592 2206.46 574.552 2205.18 572.443C2205.18 572.443 2187.21 572.582 2178.15 577.438C2186.27 572.565 2195.53 569.886 2205.01 569.668C2200.89 565.543 2195.64 562.707 2189.92 561.51C2189.92 561.51 2199.54 556.876 2209.44 569.668C2209.44 569.668 2223.39 570.14 2225.26 571.555C2225.26 571.555 2217.37 557.68 2208.33 551.964C2208.33 551.964 2221.38 553.462 2228.94 572.609L2242.89 576.772C2242.89 576.772 2233.43 557.736 2225.73 552.13C2225.73 552.13 2238.84 555.71 2246.32 578.104L2259.29 584.125C2259.29 584.125 2252.4 567.115 2245.34 559.151C2245.34 559.151 2256.75 565.062 2263.08 586.096L2271.26 591.146C2271.26 591.146 2266.01 578.798 2264.17 575.384C2262.33 571.971 2263.11 571.222 2263.11 571.222C2268.96 577.336 2272.99 584.944 2274.74 593.199C2274.74 593.199 2290.73 604.493 2291.54 603.578Z" fill="#6C63FF"/>
<path d="M1948.64 794.909C1948.64 794.909 1951.43 689.184 1877.59 704.086C1877.59 704.086 1864.37 702.06 1858.79 714.103C1858.79 714.103 1864.37 714.103 1862.81 724.787C1862.3 728.596 1862.24 732.452 1862.64 736.275C1863.14 741.46 1865.35 746.335 1868.92 750.149C1868.92 750.149 1882.22 779.397 1931.34 789.331C1931.34 789.331 1942.25 797.517 1944.98 797.074L1936.61 779.536C1936.61 779.536 1923.92 786.029 1913.02 781.617C1913.02 781.617 1936.17 780.257 1935.53 776.872C1935.53 776.178 1930.73 767.742 1930.73 767.742C1930.73 767.742 1908.58 778.981 1891.98 771.6C1891.98 771.6 1919.88 773.681 1929 764.551L1921.22 752.258C1921.22 752.258 1898.4 765.245 1879.15 757.586C1879.15 757.586 1908.3 758.752 1919.35 749.678L1910.06 738.578C1910.06 738.578 1887.55 750.843 1871.59 744.35C1871.59 744.35 1905.4 742.324 1907.86 736.192C1907.86 736.192 1898.71 726.563 1895.02 725.092C1895.02 725.092 1878.68 733.417 1869.75 728.921C1869.75 728.921 1892.07 725.203 1892.21 722.733C1892.21 722.733 1876.95 713.326 1866.66 712.632C1876.15 712.801 1885.43 715.442 1893.57 720.291C1892.3 714.619 1889.39 709.44 1885.21 705.39C1885.21 705.39 1895.83 706.583 1897.28 722.594C1897.28 722.594 1908.91 730.42 1909.67 732.584C1909.67 732.584 1910.48 716.573 1905.82 707.027C1905.82 707.027 1916.08 715.213 1912.23 735.415L1921.8 746.348C1921.8 746.348 1923.98 725.203 1920.49 716.406C1920.49 716.406 1929.64 726.368 1924.01 749.289L1931.73 761.249C1931.73 761.249 1935.02 743.184 1933.27 732.556C1933.27 732.556 1939.74 743.656 1933.82 764.773L1938.06 773.376C1938.06 773.376 1940.21 760.139 1940.49 756.282C1940.77 752.425 1941.83 752.175 1941.83 752.175C1943.51 760.453 1942.84 769.032 1939.91 776.955C1939.91 776.955 1947.41 795.27 1948.64 794.909Z" fill="#6C63FF"/>
<path opacity="0.1" d="M2070.7 2138.31C2112.19 2138.31 2145.82 2132.66 2145.82 2125.68C2145.82 2118.71 2112.19 2113.06 2070.7 2113.06C2029.21 2113.06 1995.58 2118.71 1995.58 2125.68C1995.58 2132.66 2029.21 2138.31 2070.7 2138.31Z" fill="#6C63FF"/>
<path opacity="0.1" d="M1796.86 2330C1838.35 2330 1871.98 2324.35 1871.98 2317.37C1871.98 2310.4 1838.35 2304.75 1796.86 2304.75C1755.38 2304.75 1721.75 2310.4 1721.75 2317.37C1721.75 2324.35 1755.38 2330 1796.86 2330Z" fill="#6C63FF"/>
<path opacity="0.1" d="M380.804 2231.8C422.29 2231.8 455.922 2226.14 455.922 2219.17C455.922 2212.2 422.29 2206.54 380.804 2206.54C339.317 2206.54 305.685 2212.2 305.685 2219.17C305.685 2226.14 339.317 2231.8 380.804 2231.8Z" fill="#6C63FF"/>
<path opacity="0.1" d="M2366.63 2317.37C2408.11 2317.37 2441.74 2311.72 2441.74 2304.75C2441.74 2297.78 2408.11 2292.12 2366.63 2292.12C2325.14 2292.12 2291.51 2297.78 2291.51 2304.75C2291.51 2311.72 2325.14 2317.37 2366.63 2317.37Z" fill="#6C63FF"/>
<path d="M2444.84 2163.42C2506.79 2163.42 2557 2154.97 2557 2144.55C2557 2134.13 2506.79 2125.68 2444.84 2125.68C2382.9 2125.68 2332.68 2134.13 2332.68 2144.55C2332.68 2154.97 2382.9 2163.42 2444.84 2163.42Z" fill="#6C63FF"/>
<path d="M2491.34 2113.67C2496.46 2109.53 2500.19 2103.93 2502.02 2097.63C2503.42 2091.24 2500.68 2083.61 2494.58 2081.28C2487.71 2078.67 2480.38 2083.39 2474.8 2088.16C2469.22 2092.94 2462.89 2098.4 2455.61 2097.41C2459.35 2094.03 2462.14 2089.75 2463.72 2084.98C2465.31 2080.21 2465.63 2075.11 2464.65 2070.18C2464.33 2068.14 2463.46 2066.22 2462.13 2064.63C2458.31 2060.58 2451.42 2062.33 2446.85 2065.52C2432.34 2075.68 2428.3 2095.27 2428.22 2112.92C2426.77 2106.56 2427.99 2099.93 2427.96 2093.49C2427.94 2087.05 2426.12 2079.62 2420.57 2076.23C2417.17 2074.34 2413.32 2073.39 2409.42 2073.46C2402.89 2073.24 2395.61 2073.87 2391.17 2078.62C2385.59 2084.5 2387.07 2094.41 2391.87 2100.82C2396.67 2107.23 2404 2111.36 2410.75 2115.86C2416.16 2119.07 2420.77 2123.44 2424.25 2128.65C2424.65 2129.38 2424.98 2130.14 2425.23 2130.93H2466.12C2475.28 2126.34 2483.76 2120.53 2491.34 2113.67Z" fill="#6C63FF"/>
<path d="M330.372 2160.48C330.372 2160.48 373.189 2159.18 386.159 2150.02C399.13 2140.86 452.073 2129.96 455.28 2144.63C458.488 2159.31 519.66 2217.59 471.292 2217.98C422.924 2218.36 358.907 2210.48 346.02 2202.66C333.133 2194.83 330.372 2160.48 330.372 2160.48Z" fill="#A8A8A8"/>
<path opacity="0.2" d="M472.1 2212.87C423.732 2213.26 359.716 2205.38 346.829 2197.55C337.01 2191.61 333.105 2170.27 331.794 2160.42H330.372C330.372 2160.42 333.161 2194.81 345.964 2202.6C358.768 2210.4 422.868 2218.31 471.236 2217.92C485.183 2217.92 490.008 2212.87 489.757 2205.54C487.805 2210.01 482.477 2212.79 472.1 2212.87Z" fill="black"/>
<path d="M2205.64 1885.23C2496.97 1885.23 2733.14 1869.6 2733.14 1850.31C2733.14 1831.02 2496.97 1815.39 2205.64 1815.39C1914.31 1815.39 1678.14 1831.02 1678.14 1850.31C1678.14 1869.6 1914.31 1885.23 2205.64 1885.23Z" fill="#F2F2F2"/>
<path d="M2185.43 1468.01C2099.48 1468.01 2037.77 1523.15 2037.77 1651.81C2037.77 1797.62 2099.48 1836.22 2185.43 1836.22C2271.37 1836.22 2336.75 1793.94 2336.75 1651.81C2336.75 1499.87 2271.37 1468.01 2185.43 1468.01ZM2185.99 1787.82C2126.46 1787.82 2095.36 1752.9 2095.36 1651.9C2095.36 1562.79 2127.74 1515.8 2187.26 1515.8C2246.79 1515.8 2279.16 1546.66 2279.16 1651.9C2279.16 1750.35 2245.52 1787.82 2185.99 1787.82Z" fill="#2F2E41"/>
<path d="M1986.31 1734.52H1950.78V1629.88C1950.78 1624.32 1948.57 1618.99 1944.64 1615.06C1940.71 1611.13 1935.38 1608.92 1929.82 1608.92H1921.49C1918.74 1608.92 1916.02 1609.46 1913.48 1610.52C1910.93 1611.57 1908.62 1613.11 1906.68 1615.06C1904.73 1617.01 1903.19 1619.32 1902.13 1621.86C1901.08 1624.4 1900.54 1627.13 1900.54 1629.88V1734.52H1800.31C1798.25 1734.52 1796.22 1733.98 1794.42 1732.97C1792.63 1731.96 1791.13 1730.49 1790.06 1728.73C1789 1726.96 1788.41 1724.95 1788.35 1722.89C1788.29 1720.83 1788.77 1718.79 1789.73 1716.96L1895.81 1516.18C1897.14 1513.68 1897.94 1510.94 1898.17 1508.11C1898.4 1505.29 1898.06 1502.45 1897.17 1499.77C1896.27 1497.08 1894.84 1494.61 1892.96 1492.49C1891.08 1490.37 1888.79 1488.65 1886.23 1487.45L1879.97 1484.49C1875.11 1482.19 1869.55 1481.85 1864.44 1483.54C1859.34 1485.23 1855.08 1488.82 1852.54 1493.56L1723.16 1735.59C1720.96 1739.71 1719.8 1744.31 1719.8 1748.99C1719.8 1752.72 1720.54 1756.41 1721.97 1759.86C1723.4 1763.31 1725.49 1766.44 1728.13 1769.08C1730.77 1771.72 1733.9 1773.81 1737.35 1775.24C1740.79 1776.67 1744.49 1777.4 1748.22 1777.4H1900.54V1843.57C1900.54 1846.87 1901.19 1850.14 1902.45 1853.18C1903.71 1856.23 1905.56 1859 1907.9 1861.33C1910.23 1863.66 1913 1865.51 1916.05 1866.78C1919.09 1868.04 1922.36 1868.69 1925.66 1868.69H1925.66C1928.96 1868.69 1932.22 1868.04 1935.27 1866.78C1938.32 1865.51 1941.09 1863.66 1943.42 1861.33C1945.75 1859 1947.6 1856.23 1948.86 1853.18C1950.13 1850.14 1950.78 1846.87 1950.78 1843.57V1777.4H1986.31C1992 1777.4 1997.45 1775.14 2001.47 1771.12C2005.5 1767.1 2007.75 1761.65 2007.75 1755.96C2007.75 1750.27 2005.5 1744.82 2001.47 1740.8C1997.45 1736.78 1992 1734.52 1986.31 1734.52Z" fill="#6C63FF"/>
<path d="M2644.31 1734.52H2608.77V1629.88C2608.77 1624.32 2606.57 1618.99 2602.64 1615.06C2598.71 1611.13 2593.38 1608.92 2587.82 1608.92H2579.49C2576.74 1608.92 2574.01 1609.46 2571.47 1610.52C2568.93 1611.57 2566.62 1613.11 2564.67 1615.06C2562.73 1617.01 2561.18 1619.32 2560.13 1621.86C2559.08 1624.4 2558.54 1627.13 2558.54 1629.88V1734.52H2458.31C2456.24 1734.52 2454.22 1733.98 2452.42 1732.97C2450.63 1731.96 2449.12 1730.49 2448.06 1728.73C2446.99 1726.96 2446.4 1724.95 2446.35 1722.89C2446.29 1720.83 2446.76 1718.79 2447.73 1716.96L2553.81 1516.18C2555.13 1513.68 2555.93 1510.94 2556.17 1508.11C2556.4 1505.29 2556.06 1502.45 2555.16 1499.77C2554.27 1497.08 2552.84 1494.61 2550.96 1492.49C2549.08 1490.37 2546.79 1488.65 2544.23 1487.45L2537.97 1484.49C2533.1 1482.19 2527.55 1481.85 2522.44 1483.54C2517.33 1485.23 2513.07 1488.82 2510.54 1493.56L2381.16 1735.59C2378.95 1739.71 2377.8 1744.31 2377.8 1748.99C2377.8 1756.52 2380.79 1763.75 2386.12 1769.08C2391.45 1774.41 2398.68 1777.4 2406.22 1777.4H2558.54V1843.57C2558.54 1850.23 2561.18 1856.62 2565.89 1861.33C2570.6 1866.04 2576.99 1868.69 2583.65 1868.69C2590.32 1868.69 2596.71 1866.04 2601.42 1861.33C2606.13 1856.62 2608.77 1850.23 2608.77 1843.57V1777.4H2644.31C2649.99 1777.4 2655.45 1775.14 2659.47 1771.12C2663.49 1767.1 2665.75 1761.65 2665.75 1755.96C2665.75 1750.27 2663.49 1744.82 2659.47 1740.8C2655.45 1736.78 2649.99 1734.52 2644.31 1734.52Z" fill="#6C63FF"/>
<path opacity="0.1" d="M2136.14 1306.35C2136.3 1306.35 2136.46 1306.36 2136.61 1306.36C2133.28 1306.48 2130.12 1307.89 2127.8 1310.3C2125.48 1312.7 2124.18 1315.91 2124.18 1319.25C2124.18 1322.59 2125.48 1325.8 2127.8 1328.2C2130.12 1330.61 2133.28 1332.02 2136.61 1332.14C2136.46 1332.15 2136.3 1332.15 2136.14 1332.15C2132.72 1332.15 2129.44 1330.79 2127.03 1328.37C2124.61 1325.95 2123.25 1322.67 2123.25 1319.25C2123.25 1315.83 2124.61 1312.55 2127.03 1310.13C2129.44 1307.71 2132.72 1306.35 2136.14 1306.35Z" fill="black"/>
<path d="M2276.09 1434.76C2276.09 1434.76 2279.34 1444.13 2282.31 1441.63L2279.94 1429.38L2276.09 1434.76Z" fill="#FBBEBE"/>
<path d="M2671.86 1720.55C2674.89 1721.65 2678.14 1722.03 2681.34 1721.67C2684.54 1721.3 2687.62 1720.2 2690.32 1718.44C2693.02 1716.68 2695.28 1714.32 2696.91 1711.54C2698.55 1708.77 2699.51 1705.65 2699.74 1702.43C2699.96 1699.22 2699.43 1695.99 2698.2 1693.02C2696.96 1690.04 2695.05 1687.39 2692.62 1685.27C2690.19 1683.16 2687.3 1681.64 2684.17 1680.84C2681.05 1680.03 2677.79 1679.96 2674.64 1680.63L2675.16 1691.35L2670.09 1682.17C2665.11 1684.5 2661.27 1688.72 2659.4 1693.89C2658.74 1695.7 2658.34 1697.59 2658.21 1699.52C2657.89 1704.03 2659.05 1708.53 2661.51 1712.32C2663.98 1716.12 2667.61 1719.01 2671.86 1720.55Z" fill="#57B894"/>
<path d="M2694.4 1658.59C2695.59 1655.31 2697.58 1652.38 2700.2 1650.07C2702.82 1647.77 2705.97 1646.16 2709.38 1645.39L2711.09 1655.57L2714.27 1644.88C2718.68 1644.94 2722.96 1646.41 2726.48 1649.06C2730 1651.72 2732.59 1655.42 2733.87 1659.64C2735.15 1663.87 2735.06 1668.39 2733.6 1672.55C2732.15 1676.72 2729.41 1680.31 2725.78 1682.82C2722.15 1685.32 2717.81 1686.61 2713.4 1686.49C2708.99 1686.37 2704.73 1684.85 2701.24 1682.16C2697.75 1679.46 2695.21 1675.73 2693.98 1671.49C2692.74 1667.25 2692.89 1662.74 2694.4 1658.59H2694.4Z" fill="#57B894"/>
<path d="M2709.99 1768.6C2714.8 1770.35 2720.07 1770.26 2724.82 1768.36C2729.56 1766.46 2733.44 1762.89 2735.72 1758.31C2737.99 1753.74 2738.51 1748.48 2737.16 1743.55C2735.81 1738.62 2732.7 1734.36 2728.41 1731.58L2725.97 1739.8L2724.24 1729.5C2724.22 1729.49 2724.2 1729.48 2724.18 1729.48C2721.62 1728.54 2718.89 1728.12 2716.16 1728.25C2713.42 1728.37 2710.74 1729.02 2708.27 1730.18C2705.79 1731.34 2703.56 1732.97 2701.72 1734.99C2699.87 1737.01 2698.44 1739.37 2697.51 1741.94C2696.58 1744.51 2696.16 1747.24 2696.29 1749.97C2696.41 1752.7 2697.07 1755.38 2698.23 1757.86C2699.39 1760.33 2701.02 1762.56 2703.04 1764.4C2705.06 1766.25 2707.42 1767.67 2709.99 1768.6H2709.99Z" fill="#57B894"/>
<path d="M2688.32 1803.17C2689.15 1807.87 2691.57 1812.14 2695.17 1815.27C2698.77 1818.4 2703.34 1820.2 2708.11 1820.36C2712.88 1820.52 2717.56 1819.03 2721.37 1816.15C2725.17 1813.27 2727.87 1809.17 2729.01 1804.54C2730.15 1799.9 2729.66 1795.02 2727.63 1790.7C2725.59 1786.38 2722.14 1782.9 2717.84 1780.83C2713.54 1778.76 2708.66 1778.23 2704.02 1779.33C2699.37 1780.43 2695.25 1783.09 2692.33 1786.87L2701.61 1800.83L2688.94 1793.42C2687.95 1796.57 2687.74 1799.92 2688.32 1803.17Z" fill="#57B894"/>
<path d="M1674.01 1771.25C1676 1771.97 1678.13 1772.22 1680.23 1771.98C1682.34 1771.74 1684.36 1771.02 1686.13 1769.86C1687.91 1768.71 1689.39 1767.16 1690.46 1765.33C1691.54 1763.51 1692.17 1761.46 1692.32 1759.34C1692.47 1757.23 1692.12 1755.11 1691.31 1753.16C1690.5 1751.2 1689.24 1749.46 1687.64 1748.07C1686.05 1746.68 1684.15 1745.69 1682.1 1745.16C1680.05 1744.63 1677.9 1744.58 1675.83 1745.02L1676.17 1752.06L1672.84 1746.03C1669.57 1747.57 1667.05 1750.34 1665.82 1753.73C1665.39 1754.92 1665.12 1756.17 1665.03 1757.43C1664.82 1760.4 1665.59 1763.35 1667.21 1765.84C1668.83 1768.34 1671.21 1770.23 1674.01 1771.25Z" fill="#57B894"/>
<path d="M1688.81 1730.54C1689.59 1728.38 1690.9 1726.46 1692.62 1724.94C1694.34 1723.43 1696.42 1722.37 1698.65 1721.87L1699.78 1728.56L1701.87 1721.53C1704.77 1721.57 1707.58 1722.54 1709.89 1724.28C1712.21 1726.03 1713.91 1728.46 1714.75 1731.23C1715.59 1734.01 1715.53 1736.98 1714.57 1739.71C1713.62 1742.45 1711.82 1744.81 1709.43 1746.46C1707.04 1748.1 1704.2 1748.95 1701.3 1748.87C1698.4 1748.79 1695.6 1747.8 1693.31 1746.02C1691.02 1744.25 1689.34 1741.8 1688.53 1739.02C1687.73 1736.23 1687.82 1733.26 1688.81 1730.54Z" fill="#57B894"/>
<path d="M1699.06 1802.82C1702.21 1803.97 1705.68 1803.91 1708.8 1802.66C1711.92 1801.42 1714.47 1799.06 1715.96 1796.06C1717.46 1793.05 1717.79 1789.6 1716.91 1786.36C1716.02 1783.12 1713.98 1780.32 1711.16 1778.5L1709.56 1783.9L1708.42 1777.13C1708.41 1777.12 1708.4 1777.12 1708.38 1777.11C1706.69 1776.5 1704.9 1776.23 1703.11 1776.3C1701.31 1776.38 1699.55 1776.82 1697.92 1777.58C1696.3 1778.34 1694.83 1779.41 1693.62 1780.74C1692.41 1782.06 1691.47 1783.61 1690.86 1785.3C1690.24 1786.99 1689.97 1788.78 1690.05 1790.58C1690.13 1792.37 1690.57 1794.13 1691.33 1795.76C1692.09 1797.39 1693.16 1798.85 1694.49 1800.06C1695.82 1801.27 1697.37 1802.21 1699.06 1802.82Z" fill="#57B894"/>
<path d="M1684.82 1825.53C1685.36 1828.62 1686.95 1831.43 1689.32 1833.48C1691.69 1835.54 1694.69 1836.72 1697.82 1836.82C1700.96 1836.93 1704.03 1835.95 1706.53 1834.06C1709.03 1832.17 1710.8 1829.47 1711.55 1826.43C1712.3 1823.39 1711.98 1820.18 1710.65 1817.34C1709.31 1814.5 1707.04 1812.21 1704.21 1810.85C1701.39 1809.49 1698.18 1809.14 1695.13 1809.87C1692.08 1810.59 1689.37 1812.34 1687.46 1814.82L1693.55 1823.99L1685.22 1819.12C1684.58 1821.2 1684.44 1823.39 1684.82 1825.53Z" fill="#57B894"/>
<path d="M2145.95 1642.12C2155.33 1642.12 2162.95 1632.27 2162.95 1620.12C2162.95 1607.97 2155.33 1598.12 2145.95 1598.12C2136.56 1598.12 2128.95 1607.97 2128.95 1620.12C2128.95 1632.27 2136.56 1642.12 2145.95 1642.12Z" fill="#2F2E41"/>
<path d="M2238.45 1642.62C2247.83 1642.62 2255.45 1632.77 2255.45 1620.62C2255.45 1608.47 2247.83 1598.62 2238.45 1598.62C2229.06 1598.62 2221.45 1608.47 2221.45 1620.62C2221.45 1632.77 2229.06 1642.62 2238.45 1642.62Z" fill="#2F2E41"/>
<path d="M2225.45 1685.62C2225.45 1695.56 2211.57 1703.62 2194.45 1703.62C2177.33 1703.62 2163.45 1695.56 2163.45 1685.62C2163.45 1677.01 2173.86 1669.81 2187.77 1668.05C2189.98 1667.75 2192.21 1667.61 2194.45 1667.62C2198.19 1667.6 2201.92 1668.01 2205.58 1668.82C2217.2 1671.41 2225.45 1677.96 2225.45 1685.62Z" fill="#2F2E41"/>
<path d="M2205.95 1670.32C2205.95 1671.57 2205.48 1672.79 2204.63 1673.71C2204.22 1674.15 2203.73 1674.5 2203.18 1674.74C2202.64 1674.99 2202.04 1675.11 2201.45 1675.12H2191.45C2190.21 1675.07 2189.05 1674.54 2188.21 1673.64C2187.36 1672.74 2186.91 1671.55 2186.95 1670.32C2186.94 1669.34 2187.23 1668.39 2187.77 1667.57C2189.98 1667.26 2192.21 1667.11 2194.45 1667.12C2198.19 1667.1 2201.93 1667.53 2205.58 1668.4C2205.82 1669.01 2205.95 1669.66 2205.95 1670.32Z" fill="white"/>
<path d="M2149.95 1614.12C2152.71 1614.12 2154.95 1611.88 2154.95 1609.12C2154.95 1606.35 2152.71 1604.12 2149.95 1604.12C2147.18 1604.12 2144.95 1606.35 2144.95 1609.12C2144.95 1611.88 2147.18 1614.12 2149.95 1614.12Z" fill="white"/>
<path d="M2242.95 1614.12C2245.71 1614.12 2247.95 1611.88 2247.95 1609.12C2247.95 1606.35 2245.71 1604.12 2242.95 1604.12C2240.18 1604.12 2237.95 1606.35 2237.95 1609.12C2237.95 1611.88 2240.18 1614.12 2242.95 1614.12Z" fill="white"/>
<path opacity="0.3" d="M2247.95 1661.12C2250.71 1661.12 2252.95 1658.88 2252.95 1656.12C2252.95 1653.35 2250.71 1651.12 2247.95 1651.12C2245.18 1651.12 2242.95 1653.35 2242.95 1656.12C2242.95 1658.88 2245.18 1661.12 2247.95 1661.12Z" fill="#6C63FF"/>
<path opacity="0.3" d="M2125.95 1661.12C2128.71 1661.12 2130.95 1658.88 2130.95 1656.12C2130.95 1653.35 2128.71 1651.12 2125.95 1651.12C2123.18 1651.12 2120.95 1653.35 2120.95 1656.12C2120.95 1658.88 2123.18 1661.12 2125.95 1661.12Z" fill="#6C63FF"/>
<defs>
<linearGradient id="paint0_linear" x1="743.006" y1="1340.71" x2="1613.66" y2="1340.71" gradientUnits="userSpaceOnUse">
<stop stop-color="#808080" stop-opacity="0.25"/>
<stop offset="0.54" stop-color="#808080" stop-opacity="0.12"/>
<stop offset="1" stop-color="#808080" stop-opacity="0.1"/>
</linearGradient>
</defs>
</svg>
